<svg width="252" height="96" viewBox="0 0 252 96" fill="none"
    xmlns="http://www.w3.org/2000/svg">
    <g id="Group 1">
        <g id="Label">
            <ellipse id="Ellipse 1" cx="32.5529" cy="48.0207" rx="31.722" ry="47.1763" fill="#F52A2A"/>
            <path id="Subtract" fill-rule="evenodd" clip-rule="evenodd" d="M196.856 48.0207L251.903 0.844406H32.5529V95.197H251.903L196.856 48.0207Z" fill="#F52A2A"/>
        </g>
        <path id="text" d="M65.6648 44.035V49.3759H52.1989V44.035H65.6648ZM83.9638 32.16V61.2509H76.9467V38.7225H76.7763L70.2706 42.6997V36.6202L77.4439 32.16H83.9638ZM102.426 61.9611C99.8883 61.9611 97.7008 61.3598 95.8636 60.1571C94.0265 58.945 92.6108 57.2073 91.6165 54.9441C90.6222 52.6713 90.1297 49.9393 90.1392 46.748C90.1487 43.5567 90.6458 40.8484 91.6307 38.623C92.625 36.3882 94.036 34.6884 95.8636 33.5236C97.7008 32.3494 99.8883 31.7622 102.426 31.7622C104.964 31.7622 107.152 32.3494 108.989 33.5236C110.835 34.6884 112.256 36.3882 113.25 38.623C114.244 40.8579 114.737 43.5662 114.727 46.748C114.727 49.9488 114.23 52.6855 113.236 54.9583C112.241 57.231 110.826 58.9687 108.989 60.1713C107.161 61.3645 104.973 61.9611 102.426 61.9611ZM102.426 56.2083C103.941 56.2083 105.168 55.4365 106.105 53.8929C107.043 52.3399 107.507 49.9583 107.497 46.748C107.497 44.6458 107.284 42.9128 106.858 41.5492C106.432 40.1761 105.84 39.1533 105.082 38.481C104.325 37.8086 103.439 37.4725 102.426 37.4725C100.92 37.4725 99.7036 38.2348 98.7756 39.7594C97.8475 41.2746 97.3788 43.6041 97.3693 46.748C97.3598 48.8787 97.5634 50.6448 97.9801 52.0463C98.4063 53.4478 99.0028 54.4942 99.7699 55.1855C100.537 55.8674 101.422 56.2083 102.426 56.2083ZM135.047 55.7963V54.2622C135.047 53.0691 135.303 51.9658 135.814 50.9526C136.335 49.9393 137.088 49.1249 138.072 48.5094C139.057 47.8939 140.26 47.5861 141.68 47.5861C143.129 47.5861 144.346 47.8939 145.331 48.5094C146.325 49.1155 147.073 49.9251 147.575 50.9384C148.087 51.9422 148.342 53.0501 148.342 54.2622V55.7963C148.342 56.9895 148.087 58.0927 147.575 59.106C147.064 60.1192 146.311 60.9336 145.317 61.5492C144.322 62.1647 143.11 62.4725 141.68 62.4725C140.241 62.4725 139.029 62.1647 138.044 61.5492C137.059 60.9336 136.311 60.1192 135.8 59.106C135.298 58.0927 135.047 56.9895 135.047 55.7963ZM139.578 54.2622V55.7963C139.578 56.4024 139.725 56.9848 140.018 57.5435C140.321 58.1022 140.875 58.3816 141.68 58.3816C142.504 58.3816 143.058 58.1117 143.342 57.5719C143.626 57.0227 143.768 56.4308 143.768 55.7963V54.2622C143.768 53.6278 143.631 53.0312 143.357 52.4725C143.091 51.9043 142.533 51.6202 141.68 51.6202C140.885 51.6202 140.336 51.9043 140.033 52.4725C139.73 53.0312 139.578 53.6278 139.578 54.2622ZM119.962 39.1486V37.6145C119.962 36.4024 120.222 35.2944 120.743 34.2906C121.273 33.2774 122.031 32.4677 123.016 31.8617C124 31.2461 125.194 30.9384 126.595 30.9384C128.044 30.9384 129.261 31.2461 130.246 31.8617C131.24 32.4677 131.993 33.2774 132.504 34.2906C133.016 35.2944 133.271 36.4024 133.271 37.6145V39.1486C133.271 40.3607 133.011 41.4687 132.49 42.4725C131.979 43.4763 131.226 44.2764 130.232 44.873C129.237 45.4696 128.025 45.7679 126.595 45.7679C125.165 45.7679 123.953 45.4649 122.959 44.8588C121.974 44.2528 121.226 43.4478 120.714 42.4441C120.213 41.4403 119.962 40.3418 119.962 39.1486ZM124.536 37.6145V39.1486C124.536 39.7831 124.682 40.3749 124.976 40.9242C125.279 41.4639 125.819 41.7338 126.595 41.7338C127.429 41.7338 127.982 41.4639 128.257 40.9242C128.541 40.3749 128.683 39.7831 128.683 39.1486V37.6145C128.683 36.98 128.551 36.3835 128.286 35.8247C128.02 35.2566 127.457 34.9725 126.595 34.9725C125.8 34.9725 125.255 35.2613 124.962 35.8389C124.678 36.4166 124.536 37.0085 124.536 37.6145ZM122.107 61.2509L142.107 32.16H145.984L125.984 61.2509H122.107Z" fill="white"/>
    </g>
</svg>
