<svg width="149" height="142" viewBox="0 0 149 142" fill="none" xmlns="http://www.w3.org/2000/svg">
<path id="EmptyStar" fill-rule="evenodd" clip-rule="evenodd" d="M80.9055 5.42583C78.6313 -0.622662 70.0755 -0.622662 67.8012 5.42586L53.6393 43.0902C52.6522 45.7155 50.1933 47.4982 47.3911 47.62L7.06954 49.3721C0.590967 49.6536 -2.05524 57.8321 3.03045 61.8554L34.554 86.7936C36.7651 88.5428 37.711 91.4478 36.9538 94.1635L26.1782 132.81C24.4403 139.043 31.3645 144.094 36.7695 140.537L70.5049 118.333C72.8403 116.796 75.8664 116.796 78.2018 118.333L111.937 140.537C117.342 144.094 124.266 139.043 122.529 132.81L111.753 94.1635C110.996 91.4478 111.942 88.5428 114.153 86.7936L145.676 61.8554C150.762 57.8321 148.116 49.6536 141.637 49.3721L101.316 47.62C98.5135 47.4982 96.0545 45.7155 95.0674 43.0902L80.9055 5.42583ZM77.1611 8.46041C76.1859 5.86934 72.5208 5.86934 71.5456 8.46041L55.9189 49.9819C55.4956 51.1066 54.4419 51.8702 53.2413 51.9224L8.70407 53.8559C5.92681 53.9765 4.79302 57.483 6.97396 59.2067L41.8306 86.756C42.7791 87.5057 43.185 88.7515 42.8599 89.9161L30.9524 132.582C30.207 135.253 33.1734 137.419 35.4903 135.895L72.7051 111.424C73.7055 110.766 75.0012 110.766 76.0016 111.424L113.216 135.895C115.533 137.419 118.5 135.253 117.754 132.582L105.847 89.9161C105.522 88.7515 105.928 87.5057 106.876 86.756L141.733 59.2067C143.914 57.483 142.78 53.9765 140.003 53.8559L95.4654 51.9224C94.2648 51.8702 93.2111 51.1066 92.7878 49.9819L77.1611 8.46041Z" fill="#EFC52D"/>
</svg>
