<svg width="149" height="142" viewBox="0 0 149 142" fill="none" xmlns="http://www.w3.org/2000/svg">
<path id="FullStar" fill-rule="evenodd" clip-rule="evenodd" d="M80.7891 5.42584C78.5148 -0.622665 69.959 -0.622658 67.6848 5.42585L53.5229 43.0902C52.5358 45.7155 50.0768 47.4982 47.2747 47.62L6.95309 49.3721C0.474523 49.6536 -2.1717 57.8321 2.91399 61.8554L34.4376 86.7936C36.6487 88.5428 37.5946 91.4478 36.8374 94.1635L26.0618 132.81C24.3238 139.043 31.248 144.094 36.653 140.537L70.3884 118.333C72.7239 116.796 75.75 116.796 78.0854 118.333L111.821 140.537C117.226 144.094 124.15 139.043 122.412 132.81L111.636 94.1635C110.879 91.4478 111.825 88.5428 114.036 86.7936L145.56 61.8554C150.646 57.8321 147.999 49.6536 141.521 49.3721L101.199 47.62C98.397 47.4982 95.9381 45.7155 94.9509 43.0902L80.7891 5.42584Z" fill="#EFC52D"/>
</svg>
