<svg width="149" height="142" viewBox="0 0 149 142" fill="none"
    xmlns="http://www.w3.org/2000/svg">
    <path id="HalfStar" fill-rule="evenodd" clip-rule="evenodd" d="M80.8474 5.42583C78.5732 -0.622662 70.0174 -0.622662 67.7431 5.42586L53.5813 43.0902C52.5941 45.7155 50.1352 47.4982 47.333 47.62L7.01146 49.3721C0.532883 49.6536 -2.11336 57.8321 2.97234 61.8554L34.496 86.7936C36.707 88.5428 37.6529 91.4478 36.8957 94.1635L26.1201 132.81C24.3822 139.043 31.3064 144.094 36.7114 140.537L70.4468 118.333C72.7822 116.796 75.8083 116.796 78.1437 118.333L111.879 140.537C117.284 144.094 124.208 139.043 122.47 132.81L111.695 94.1635C110.938 91.4478 111.884 88.5428 114.095 86.7936L145.618 61.8554C150.704 57.8321 148.058 49.6536 141.579 49.3721L101.258 47.62C98.4554 47.4982 95.9964 45.7155 95.0093 43.0902L80.8474 5.42583ZM75.9435 111.424C75.4433 111.095 74.8693 110.931 74.2953 110.931V6.51711C75.4554 6.51711 76.6155 7.16488 77.103 8.46041L92.7297 49.9819C93.153 51.1066 94.2067 51.8702 95.4073 51.9224L139.945 53.8559C142.722 53.9765 143.856 57.483 141.675 59.2067L106.818 86.756C105.869 87.5057 105.464 88.7515 105.789 89.9161L117.696 132.582C118.442 135.253 115.475 137.419 113.158 135.895L75.9435 111.424Z" fill="#EFC52D"/>
</svg>
