<?xml version="1.0" encoding="UTF-8"?>
<svg version="1.1"
    xmlns="http://www.w3.org/2000/svg" width="1080">
    <path d="M0 0 C1.5672155 -0.02409439 1.5672155 -0.02409439 3.16609192 -0.04867554 C7.94649661 -0.09306697 12.72676171 -0.13418771 17.50732422 -0.15722656 C20.03020446 -0.17379347 22.55303764 -0.20109274 25.07568359 -0.23925781 C28.70915124 -0.2939608 32.34151808 -0.3158914 35.9753418 -0.33056641 C37.10257156 -0.35323578 38.22980133 -0.37590515 39.39118958 -0.39926147 C47.23320224 -0.37806189 47.23320224 -0.37806189 51.16845703 2.60229492 C56.50074908 10.19807301 56.28142671 18.76773545 56.57397461 27.73071289 C56.79763086 33.55283264 57.64181663 38.7111092 59.29956055 44.31396484 C60.38322586 48.85181333 60.4538339 53.41344523 60.58081055 58.06396484 C61.02582368 61.49142175 62.09855622 63.34504675 63.98706055 66.19287109 C63.98706055 66.85287109 63.98706055 67.51287109 63.98706055 68.19287109 C64.64706055 68.19287109 65.30706055 68.19287109 65.98706055 68.19287109 C66.16881836 66.45650391 66.16881836 66.45650391 66.35424805 64.68505859 C66.5231737 63.14595817 66.69246386 61.60689772 66.86206055 60.06787109 C66.94069336 59.30732422 67.01932617 58.54677734 67.1003418 57.76318359 C67.47773781 54.39564997 67.89770951 51.44715205 69.02612305 48.23583984 C70.58879206 43.28738798 70.41851288 38.24929532 70.5534668 33.09326172 C70.717247 28.59642714 71.25060181 25.37272631 72.98706055 21.19287109 C73.23946888 17.38605693 73.30075372 13.60108863 73.3503418 9.78662109 C74.13198406 5.37489787 75.51961682 3.93814412 78.98706055 1.19287109 C88.67473924 -2.03635514 101.95176131 0.28819885 112.14941406 0.77270508 C113.76522073 0.8451871 115.38149552 0.90782851 116.99804688 0.96118164 C119.37226883 1.04040961 121.74332662 1.15040159 124.1159668 1.26708984 C124.83369766 1.28503098 125.55142853 1.30297211 126.29090881 1.32145691 C129.90217935 1.53360259 131.80764228 2.05238529 134.67635345 4.29860687 C137.54936617 7.89718409 137.61112219 9.68834573 137.60852051 14.25231934 C137.61490933 14.95135108 137.62129815 15.65038283 137.62788057 16.37059736 C137.64311112 18.70712452 137.62268471 21.04195055 137.60229492 23.37841797 C137.60579674 25.05575624 137.611456 26.73309119 137.61911011 28.41041565 C137.63335916 32.96218361 137.61629554 37.51334755 137.59282494 42.06505775 C137.57271942 46.82864788 137.57859534 51.59221284 137.58093262 56.35583496 C137.58087904 64.35548872 137.5611202 72.35490631 137.52905273 80.35449219 C137.4921598 89.602793 137.48337716 98.85078443 137.49035025 108.09914923 C137.49665578 116.99616009 137.48590002 125.89306487 137.46638489 134.79005432 C137.4582107 138.57623303 137.45550138 142.36235752 137.45707703 146.14854431 C137.45795606 150.6072043 137.44373479 155.06557032 137.41785049 159.52415276 C137.41068914 161.16040052 137.40860493 162.79667955 137.41196823 164.43293953 C137.41568393 166.66675274 137.40093349 168.8997085 137.38146973 171.13342285 C137.37587666 173.00828747 137.37587666 173.00828747 137.37017059 174.92102814 C136.95175813 178.49436141 136.25396903 180.41024906 133.98706055 183.19287109 C131.02028404 183.6600646 128.63169283 183.80153877 125.6706543 183.71630859 C124.85838882 183.71160553 124.04612335 183.70690247 123.20924377 183.70205688 C120.61348867 183.68069803 118.01977043 183.62407462 115.42456055 183.56787109 C113.67262662 183.55136631 111.92067095 183.53701764 110.16870117 183.52490234 C97.37971508 183.38919836 97.37971508 183.38919836 94.98706055 182.19287109 C93.87286022 178.85027011 93.83528098 176.28829767 93.79760742 172.76538086 C93.78516747 171.79412766 93.78516747 171.79412766 93.7724762 170.80325317 C93.75509621 169.39879848 93.7399238 167.99431512 93.72669983 166.58981514 C93.70564003 164.36627347 93.67861928 162.14287505 93.65002441 159.91941833 C93.59037322 155.19812453 93.53820298 150.47676372 93.48706055 145.75537109 C93.42778338 140.28743376 93.36544103 134.81956714 93.29518127 129.35175896 C93.26865417 127.16263485 93.24781042 124.97350342 93.22717285 122.78431702 C93.21056453 121.43945983 93.19369222 120.09460588 93.17651367 118.74975586 C93.1639856 117.57743912 93.15145752 116.40512238 93.1385498 115.19728088 C93.01164136 112.68036988 92.7226106 110.58894977 91.98706055 108.19287109 C88.076033 113.13311641 87.28222394 116.98265114 86.86206055 123.19287109 C86.2155898 131.52821731 86.2155898 131.52821731 84.96362305 135.16943359 C83.62915266 139.3009539 83.60244588 143.25110226 83.48706055 147.56787109 C83.31926845 153.78604892 82.58473038 159.18026631 80.98706055 165.19287109 C80.50786548 168.79824347 80.11614335 172.40308544 79.74487305 176.02099609 C78.82537509 179.86961641 78.37228945 181.10303621 74.98706055 183.19287109 C71.33087179 183.80172013 67.74880676 183.79618043 64.04956055 183.75537109 C63.06020508 183.77921875 62.07084961 183.80306641 61.05151367 183.82763672 C56.24938706 183.8179485 53.78434304 183.7910818 49.8581543 180.84521484 C46.42591875 175.97989556 46.68577504 170.98507183 46.46948242 165.26123047 C46.25196238 160.87389224 45.38671406 157.32570628 43.98706055 153.19287109 C43.77448623 150.84379038 43.63275625 148.48758269 43.54956055 146.13037109 C43.26135812 140.03008639 42.1930861 134.43890316 40.67456055 128.53271484 C39.65439396 123.57679192 39.52272057 118.64462603 39.39331055 113.60302734 C38.94683018 109.85516814 37.94014649 107.40493155 35.98706055 104.19287109 C34.99706055 103.69787109 34.99706055 103.69787109 33.98706055 103.19287109 C33.98119431 104.0963176 33.97532806 104.9997641 33.96928406 105.93058777 C33.91135082 114.44985223 33.83927041 122.96885469 33.75134563 131.48786449 C33.70664154 135.86746056 33.66738557 140.2469636 33.640625 144.62670898 C33.6145923 148.85439868 33.57419033 153.08173039 33.52387428 157.30919838 C33.5072053 158.92105973 33.4956912 160.532983 33.48944664 162.14491844 C33.47980564 164.40501702 33.45174805 166.66419971 33.41943359 168.92407227 C33.40833054 170.20980637 33.39722748 171.49554047 33.38578796 172.82023621 C32.96096375 176.41361076 32.14652107 178.32245222 29.98706055 181.19287109 C23.30609183 184.73116562 13.86737234 183.33797577 6.61206055 183.06787109 C5.34233398 183.04466797 4.07260742 183.02146484 2.7644043 182.99755859 C1.55139648 182.95630859 0.33838867 182.91505859 -0.91137695 182.87255859 C-2.01143066 182.83888184 -3.11148437 182.80520508 -4.24487305 182.77050781 C-7.01293945 182.19287109 -7.01293945 182.19287109 -8.66213417 180.59284115 C-10.49128773 177.34299173 -10.39054271 174.93965346 -10.39389038 171.2157135 C-10.39857035 170.51345262 -10.40325032 169.81119175 -10.40807211 169.08765024 C-10.42003771 166.73459227 -10.41055908 164.38211503 -10.40112305 162.02905273 C-10.4051881 160.34201212 -10.41052961 158.65497418 -10.41705322 156.96794128 C-10.43074156 152.38527768 -10.42542165 147.80281647 -10.41591597 143.22014928 C-10.40832599 138.42584893 -10.41536325 133.63156603 -10.42007446 128.83726501 C-10.42553447 120.78462612 -10.41833452 112.73206973 -10.40405273 104.67944336 C-10.38773129 95.36926184 -10.39301006 86.05927747 -10.40953195 76.74910074 C-10.42314644 68.7574835 -10.42506649 60.76592561 -10.41721594 52.77430052 C-10.41253851 48.00048716 -10.4119164 43.22676646 -10.42182541 38.45295906 C-10.43049204 33.96397362 -10.42447871 29.47524225 -10.40714264 24.98628426 C-10.40317594 23.33873924 -10.40431499 21.69117283 -10.41093063 20.04363632 C-10.41912931 17.79447306 -10.40884558 15.54612374 -10.39389038 13.29701233 C-10.3927593 12.03842942 -10.39162823 10.77984652 -10.39046288 9.48312473 C-9.98199951 5.92321828 -9.15922605 4.03256383 -7.01293945 1.19287109 C-4.52010171 -0.05354778 -2.78953132 0.03890874 0 0 Z " fill="#3100EF" transform="translate(386.012939453125,70.80712890625)"/>
    <path d="M0 0 C0.82971817 -0.00807175 1.65943634 -0.01614349 2.51429749 -0.02445984 C4.26854371 -0.03828157 6.0228166 -0.04901226 7.77709961 -0.05688477 C10.45933728 -0.0741331 13.14035319 -0.11803866 15.82226562 -0.16210938 C17.5273347 -0.17223374 19.23241423 -0.18075064 20.9375 -0.1875 C22.13922096 -0.21376213 22.13922096 -0.21376213 23.36521912 -0.24055481 C26.77953064 -0.22725066 29.10470496 -0.02885336 32.03442383 1.78930664 C34.06384321 5.10102062 34.13791562 8.07208594 34.14453125 11.84765625 C34.1610675 12.57446594 34.17760376 13.30127563 34.19464111 14.05010986 C34.24307986 16.36291994 34.26448114 18.67507282 34.28515625 20.98828125 C34.31331966 22.55992882 34.34324762 24.13154584 34.375 25.703125 C34.44883672 29.54812294 34.49843573 33.39275697 34.53515625 37.23828125 C38.83939282 38.26181966 40.57635716 38.11090949 44.47265625 35.92578125 C45.34792969 35.46171875 46.22320313 34.99765625 47.125 34.51953125 C47.92035156 34.09671875 48.71570313 33.67390625 49.53515625 33.23828125 C55.32928487 30.70334998 62.04626266 30.04695173 68.09765625 32.11328125 C68.90203125 32.48453125 69.70640625 32.85578125 70.53515625 33.23828125 C71.97145166 33.4748803 73.40912927 33.70315208 74.84765625 33.92578125 C81.05727806 35.26084994 85.42019413 38.98111407 88.8515625 44.265625 C89.87680114 46.23665574 90.75041654 48.15988647 91.53515625 50.23828125 C91.87609314 51.11201889 92.21703003 51.98575653 92.56829834 52.88597107 C93.65308068 56.64715131 93.81646598 60.08943221 93.79394531 63.96508789 C93.79744995 64.71561432 93.80095459 65.46614075 93.80456543 66.2394104 C93.81333249 68.7091816 93.80754725 71.17866359 93.80078125 73.6484375 C93.80213033 75.37991897 93.80407289 77.11140007 93.80657959 78.84288025 C93.8095249 82.47170621 93.80525597 86.10043358 93.79589844 89.72924805 C93.78456401 94.34640747 93.79102879 98.96333279 93.80304337 103.58048344 C93.81032923 107.15904956 93.80794243 110.73756179 93.80278778 114.31612968 C93.80146668 116.01632147 93.8030441 117.71651838 93.80774689 119.41670418 C93.82692386 128.30576042 93.5873213 136.82804389 91.98658752 145.60784912 C91.3634135 149.2390042 91.29515208 152.74375619 91.22265625 156.42578125 C90.83777534 165.00224515 88.63264922 171.64959018 82.28515625 177.61328125 C74.18151155 183.76508035 65.26995497 186.05181186 55.12109375 184.984375 C49.2638601 183.8356949 41.17320136 182.03032391 36.99609375 177.609375 C35.38296738 175.78206115 35.38296738 175.78206115 31.53515625 176.23828125 C30.79394531 177.05554688 30.05273438 177.8728125 29.2890625 178.71484375 C26.25213331 181.49761858 24.75805032 181.79219911 20.70874023 181.72875977 C19.97083252 181.69065186 19.2329248 181.65254395 18.47265625 181.61328125 C17.70058838 181.59257568 16.92852051 181.57187012 16.13305664 181.55053711 C13.59864933 181.47375225 11.06790856 181.35729803 8.53515625 181.23828125 C6.67060315 181.16845885 4.80601905 181.09945966 2.94140625 181.03125 C-11.25073703 180.45238797 -11.25073703 180.45238797 -12.46484375 179.23828125 C-12.56411759 176.97725143 -12.59116816 174.71305242 -12.59182739 172.44984436 C-12.59338738 171.73169585 -12.59494737 171.01354734 -12.59655464 170.27363676 C-12.60056717 167.84915214 -12.59737401 165.42472931 -12.59423828 163.00024414 C-12.59559222 161.2693732 -12.59737211 159.53850255 -12.59954834 157.80763245 C-12.60412387 153.09282457 -12.60233254 148.37803846 -12.59916925 143.66323018 C-12.59664586 138.73938896 -12.59898317 133.81554966 -12.60055542 128.89170837 C-12.60237735 120.62026635 -12.59997038 112.34883325 -12.59521484 104.07739258 C-12.58977398 94.50313669 -12.59153352 84.92890211 -12.59704125 75.35464674 C-12.60157386 67.14829197 -12.60222214 58.94194363 -12.59960258 50.73558801 C-12.59804039 45.82827463 -12.59784442 40.92097127 -12.60113907 36.01365852 C-12.60401986 31.40004793 -12.60203823 26.78646489 -12.59624481 22.17285728 C-12.59491826 20.47567414 -12.59530957 18.7784887 -12.59750748 17.08130646 C-12.60022312 14.77207319 -12.59683272 12.46292929 -12.59182739 10.15370178 C-12.59145037 8.85895967 -12.59107334 7.56421755 -12.59068489 6.23024082 C-12.46484375 3.23828125 -12.46484375 3.23828125 -11.46484375 1.23828125 C-7.63478104 -0.03840632 -3.99382794 0.03673205 0 0 Z M35.41516113 59.68711853 C32.65843597 63.42798884 32.97437975 66.64420143 33.01757812 71.18188477 C33.01056885 72.08473206 33.00355957 72.98757935 32.99633789 73.91778564 C32.97873653 76.90123269 32.99038734 79.88373086 33.00390625 82.8671875 C33.00121219 84.93936851 32.99733049 87.01154829 32.99230957 89.08372498 C32.98641181 93.42564942 32.99498746 97.76724467 33.01367188 102.10913086 C33.03647562 107.680371 33.02333082 113.250841 32.99938202 118.82205296 C32.98494379 123.10025358 32.98952074 127.3782709 32.99989319 131.65647697 C33.0025652 133.71102934 32.99927413 135.76559824 32.98997498 137.8201313 C32.97984041 140.68856173 32.99526642 143.55573568 33.01757812 146.42407227 C33.0094812 147.27662094 33.00138428 148.12916962 32.99304199 149.0075531 C33.0145311 153.57291604 33.0145311 153.57291604 35.40734863 157.28916931 C37.53688225 158.41225951 37.53688225 158.41225951 40.09765625 158.23828125 C43.3707869 156.89545842 44.02913031 155.39376417 45.53515625 152.23828125 C45.88590714 151.52155746 46.23665802 150.80483368 46.59803772 150.06639099 C47.79981293 146.43957959 47.83815628 143.01661786 47.84155273 139.23852539 C47.84987625 138.44764023 47.85819977 137.65675507 47.86677551 136.84190369 C47.89080909 134.23569778 47.89963854 131.62974235 47.90625 129.0234375 C47.91521995 127.20649645 47.92434186 125.38955614 47.93360901 123.57261658 C47.95008247 119.76722419 47.95779638 115.96191963 47.96069336 112.15649414 C47.96608173 107.28611755 48.00378732 102.41656855 48.04943752 97.54642582 C48.07921028 93.79484556 48.08641693 90.04346479 48.08741951 86.29177666 C48.0916198 84.49644611 48.10404651 82.70111487 48.12493706 80.90590096 C48.15186271 78.39246124 48.14702413 75.88094302 48.13452148 73.36743164 C48.14935577 72.63009796 48.16419006 71.89276428 48.17947388 71.13308716 C48.09867396 65.41479476 46.47412191 63.08645048 42.53515625 59.23828125 C39.31964684 57.82659419 38.32822372 57.69628674 35.41516113 59.68711853 Z " fill="#3100EF" transform="translate(670.46484375,73.76171875)"/>
    <path d="M0 0 C3.8073121 1.80663316 7.02318191 4.02318191 10 7 C10.76408565 10.77658727 10.76040151 14.22403358 10 18 C6.87364036 22.51135316 2.6786291 24.93894955 -2.4375 26.6875 C-3.613125 27.120625 -4.78875 27.55375 -6 28 C-6.77599623 30.02362791 -6.77599623 30.02362791 -7 32 C-6.38253906 32.0515625 -5.76507812 32.103125 -5.12890625 32.15625 C2.49528782 33.17745103 6.96187015 36.24671189 12 42 C13.9375 45.4375 13.9375 45.4375 15 48 C19.54969552 50.27484776 25.97917935 49.6233196 31.03027344 49.83227539 C32.59046367 49.90229226 34.15013969 49.98493271 35.70898438 50.08032227 C37.95929806 50.2172751 40.20825381 50.3140103 42.4609375 50.40234375 C43.15585297 50.45204819 43.85076843 50.50175262 44.56674194 50.55296326 C46.80677354 50.67768222 46.80677354 50.67768222 50 50 C52.43384867 47.19519913 52.43384867 47.19519913 54 44 C58.72719445 38.87802914 64.19702068 34.77876065 71 33 C72.99940858 32.94709086 74.99990495 32.93016469 77 32.9375 C88.75613173 32.52227239 99.58166587 25.99564644 110 21 C110 19.68 110 18.36 110 17 C109.01 16.3503125 109.01 16.3503125 108 15.6875 C106 14 106 14 105.4375 10.5625 C106 7 106 7 108.1328125 4.80859375 C113.10255314 1.67373011 118.3203805 2.28647996 124 3 C127.25090209 4.17995706 129.26632575 5.82306422 131.125 8.8046875 C133.17951289 13.95931359 132.50695913 19.9721635 131.1875 25.25 C127.28222819 30.15948457 121.56959364 33.21520318 116 36 C113.75618252 36.03032186 111.53088736 35.93356552 109.2890625 35.83984375 C106.74389667 36.01791849 105.18754243 36.72643078 103 38 C103.33 38.99 103.66 39.98 104 41 C107.43499398 42.04090727 108.9502313 42.01628794 112.4375 40.875 C116 40 116 40 118.6875 41.375 C123.01271167 43.49680195 126.4519834 43.14551227 131.1953125 42.91015625 C135.05051853 43.03365171 136.97459703 43.93289404 139.6328125 46.69921875 C142.12897255 50.025254 144.18484483 52.85947394 145.1875 56.9375 C145.5896875 58.4534375 145.5896875 58.4534375 146 60 C149.44226509 61.1474217 151.53296375 60.8736397 155.125 60.5 C168.52292388 59.34861592 168.52292388 59.34861592 174 63 C174.42578125 65.41015625 174.42578125 65.41015625 174 68 C172.35546875 69.80859375 172.35546875 69.80859375 170.1875 71.4375 C166.6074208 74.34434813 164.82717416 76.70614073 163 81 C161.9171875 82.3303125 161.9171875 82.3303125 160.8125 83.6875 C158.28664047 88.30372604 158.09878133 92.82814152 159 98 C160.41647707 99.82562256 160.41647707 99.82562256 162 101 C161.9071875 99.3603125 161.9071875 99.3603125 161.8125 97.6875 C162 94 162 94 163.375 92.125 C166.69323285 89.82776187 168.96956904 89.60485971 173 90 C177.24927893 92.56933145 179.30372634 95.35756683 181 100 C181.57815592 104.04709143 181.8742311 106.41584364 179.8984375 109.99609375 C176.53200978 114.32564384 173.55199135 116.27186999 168 117 C157.5361772 116.82163938 157.5361772 116.82163938 153 114 C148.53945717 108.54822543 148.35750339 103.44997024 148.52734375 96.5234375 C149.12552199 92.06429063 150.5940123 88.80989634 152.90625 84.98828125 C154.24099241 82.9401206 154.24099241 82.9401206 154 80 C150.91365472 79.55909353 148.98855548 79.31893464 146 80 C143.66733329 81.83760435 141.80332 83.81352777 139.859375 86.0546875 C137.43572549 88.59035442 135.51676987 89.9388634 131.96484375 90.08203125 C131.29582031 89.99308594 130.62679688 89.90414062 129.9375 89.8125 C129.26589844 89.73644531 128.59429688 89.66039062 127.90234375 89.58203125 C125.46893283 88.83751744 124.52561166 88.03714028 123 86 C122.26953125 83.51953125 122.26953125 83.51953125 121.8125 80.8125 C121.65394531 79.91144531 121.49539063 79.01039063 121.33203125 78.08203125 C121.22246094 77.39496094 121.11289062 76.70789063 121 76 C117.39134843 74.79711614 115.50322256 75.48038493 112.03125 76.8515625 C109.79348088 78.11676273 108.72228348 79.33159642 107.1875 81.375 C102.96874022 86.87570335 96.39065289 88.86978237 90 91 C83.51387975 91.41181716 78.1477071 90.48671401 71.89453125 88.75390625 C66.12622181 87.05393861 66.12622181 87.05393861 60.3671875 87.96875 C54.69373076 91.33042945 54.69373076 91.33042945 50.9375 96.5625 C48.25841088 101.31572263 45.08160823 103.18684401 40 105 C35.53480431 105.91098274 31.85180814 105.93387226 27.73046875 103.85546875 C23.10064156 100.5999873 18.89973441 96.81203263 17.5546875 91.11328125 C16.83310331 82.62682374 21.52796111 73.66745916 26.140625 66.82421875 C27.74460401 64.38792291 28.56428676 62.83213603 29 60 C27.54257537 59.91903197 26.08387193 59.86082226 24.625 59.8125 C23.40683594 59.76029297 23.40683594 59.76029297 22.1640625 59.70703125 C21.44992187 59.80371094 20.73578125 59.90039062 20 60 C18.2306563 62.65401555 17.61296356 64.10239651 16.8125 67.0625 C13.69528397 76.58474202 7.83582401 83.35948003 -1 88 C-5.38694394 89.46231465 -9.65354607 89.26546943 -14.25 89.3125 C-15.64412109 89.35600586 -15.64412109 89.35600586 -17.06640625 89.40039062 C-24.47746877 89.46852628 -28.62387546 88.09780602 -34.1796875 83 C-34.73914063 82.34 -35.29859375 81.68 -35.875 81 C-36.44992187 80.34 -37.02484375 79.68 -37.6171875 79 C-39.02635313 76.96188473 -39.57826244 75.42228754 -40 73 C-41.65 73 -43.3 73 -45 73 C-45.21914063 73.556875 -45.43828125 74.11375 -45.6640625 74.6875 C-47.77936152 79.7779757 -50.25278104 83.82831499 -53.671875 88.13671875 C-55.42312451 90.59361879 -56.2722257 93.0889028 -57 96 C-56.401875 96.2475 -55.80375 96.495 -55.1875 96.75 C-52.55503205 98.2542674 -51.4459032 99.32507908 -50 102 C-49.44535191 107.08427419 -49.99825816 109.89544431 -53 114 C-57.68679805 117.18087605 -62.95056593 119.48418196 -68.6875 119.125 C-74.15598576 118.0665834 -78.80141541 115.59118898 -82.421875 111.32421875 C-84.22964155 108.53208617 -85.0197192 106.45354161 -84.875 103.125 C-84.58625 102.09375 -84.2975 101.0625 -84 100 C-83.63949544 98.37639429 -83.28563066 96.75130381 -82.9375 95.125 C-82.62656973 93.74964419 -82.31461197 92.3745183 -82 91 C-86.62510688 88.0351879 -89.43299117 87.88033088 -94.62890625 88.66015625 C-99.56014629 89.36694024 -104.16811042 89.77346449 -108.8125 87.8125 C-111 86 -111 86 -112.75 83.3125 C-114.73176625 80.80430787 -114.73176625 80.80430787 -117.25 80.6796875 C-119.52004594 80.68678139 -121.74096213 80.78278482 -124 81 C-125 78 -125 78 -124.07421875 75.95703125 C-123.61660156 75.24933594 -123.15898437 74.54164063 -122.6875 73.8125 C-122.23761719 73.09707031 -121.78773438 72.38164062 -121.32421875 71.64453125 C-120.88722656 71.10183594 -120.45023438 70.55914062 -120 70 C-119.34 70 -118.68 70 -118 70 C-116.11608215 66.73454239 -115.50712033 63.71888239 -115 60 C-116.19625 59.649375 -117.3925 59.29875 -118.625 58.9375 C-123.40629071 57.11686617 -126.53894421 54.51792358 -129 50 C-129.76214101 46.91039759 -129.5283653 45.27586486 -129 42 C-126.16859693 37.59483163 -122.7475035 35.41042366 -118.125 33.1875 C-117.22587891 32.72053711 -117.22587891 32.72053711 -116.30859375 32.24414062 C-111.29071406 29.7678551 -107.59955712 29.31360009 -102.21875 30.734375 C-93.99597553 33.80610109 -93.99597553 33.80610109 -90.625 36.3125 C-88.19745531 38.26498623 -88.19745531 38.26498623 -85.73828125 37.73828125 C-81.51240257 36.59892166 -77.39345434 35.15950621 -73.25390625 33.7421875 C-67.63907627 32.46149399 -63.06165375 33.96685255 -58.08984375 36.5625 C-52.72504294 40.25268075 -48.83246697 45.81142933 -45 51 C-42.02299794 49.96061566 -41.09446266 49.16481767 -39.5 46.3828125 C-39.005 45.30773437 -38.51 44.23265625 -38 43.125 C-35.23946554 37.75298802 -32.23638099 33.67128668 -27.9375 29.4375 C-27.44314453 28.94975098 -26.94878906 28.46200195 -26.43945312 27.95947266 C-23.19562105 24.87783219 -19.71495414 22.46944702 -16 20 C-14.85912001 18.02895838 -14.85912001 18.02895838 -15 16 C-15.99 14.515 -15.99 14.515 -17 13 C-17.45752616 9.41604504 -17.55132265 7.71467751 -15.3125 4.8125 C-10.373741 0.94158079 -6.45918314 -1.30368834 0 0 Z M-26.3125 40.5 C-28.13589869 42.95993343 -28.13589869 42.95993343 -29 46 C-27.68 47.32 -26.36 48.64 -25 50 C-24.34 49.67 -23.68 49.34 -23 49 C-22.34444881 46.47266765 -22.34444881 46.47266765 -22 44 C-16.25 45.625 -16.25 45.625 -14 49 C-14.14466673 52.97833499 -14.39412944 55.25731996 -16.9375 58.375 C-20.69048052 61.33189374 -23.25713229 61.16354716 -28 61 C-30.4375 60.5 -30.4375 60.5 -32 60 C-32.95502158 61.72476911 -32.95502158 61.72476911 -33 64 C-29.04781065 68.88211625 -25.47094158 70.59923504 -19.36328125 71.58984375 C-10.81916473 72.43669052 -4.14811782 72.46620774 3 67 C6.86440055 62.94709211 8.45832321 60.03162224 8.32421875 54.34765625 C7.50723609 48.43191436 4.99395022 43.79840204 0.5703125 39.80859375 C-4.75822527 36.07257931 -9.21468785 34.04379807 -15.77734375 34.57421875 C-20.40747184 35.46118529 -23.13149707 37.06107792 -26.3125 40.5 Z M-111 39 C-111.66 40.32 -112.32 41.64 -113 43 C-112.01 44.485 -112.01 44.485 -111 46 C-109.68 45.67 -108.36 45.34 -107 45 C-105.98888907 41.95086772 -105.98888907 41.95086772 -107 39 C-108.32 39 -109.64 39 -111 39 Z M-99 39 C-99.6814823 40.89179203 -99.6814823 40.89179203 -100 43 C-99.34 43.66 -98.68 44.32 -98 45 C-96.68 45 -95.36 45 -94 45 C-94 43.35 -94 41.7 -94 40 C-95.65 39.67 -97.3 39.34 -99 39 Z M80.125 45.5 C79.75375 46.325 79.3825 47.15 79 48 C79.67546875 48.24234375 80.3509375 48.4846875 81.046875 48.734375 C90.89794364 52.43564356 90.89794364 52.43564356 93 56 C94.01248935 61.27474288 94.73060014 66.82594933 93 72 C91.296875 73.0859375 91.296875 73.0859375 89 74 C87.07201043 75.19018351 85.1559108 76.39977163 83.25 77.625 C82.26515625 78.25664062 81.2803125 78.88828125 80.265625 79.5390625 C79.51796875 80.02117187 78.7703125 80.50328125 78 81 C78.81333782 83.19979619 78.81333782 83.19979619 81.0625 83.75 C85.80762897 84.15384076 89.93204088 83.62786714 93.70703125 80.65625 C98.61799797 75.38473129 101.93309201 68.7468475 102.0625 61.5 C100.06450071 54.91835528 97.96294543 48.85384443 92.0625 44.875 C87.53301552 42.4820648 83.57613249 40.89849002 80.125 45.5 Z M62 47 C60.06277405 50.27324384 59 52.1851331 59 56 C60.32 56 61.64 56 63 56 C64.84915344 53.90635871 64.84915344 53.90635871 66.3125 51.1875 C66.84488281 50.29417969 67.37726563 49.40085937 67.92578125 48.48046875 C69.35191576 45.94375477 69.35191576 45.94375477 68 43 C65.61601061 43 63.61808579 45.53601762 62 47 Z M-103 59 C-104.27235334 61.66528756 -104.27235334 61.66528756 -105 64 C-103.24420104 66.21785132 -102.31612229 66.93677554 -99.5 67.5 C-98.2625 67.2525 -98.2625 67.2525 -97 67 C-96.525625 66.195625 -96.05125 65.39125 -95.5625 64.5625 C-94 62 -94 62 -90.8125 61.1875 C-89.884375 61.125625 -88.95625 61.06375 -88 61 C-87.79375 62.11375 -87.5875 63.2275 -87.375 64.375 C-86.3596591 68.15090416 -86.3596591 68.15090416 -83.3125 69.6875 C-78.80992719 70.11227102 -76.4473606 68.80639406 -73 66 C-70.7918416 63.82108941 -70.7918416 63.82108941 -70 61 C-70.71629656 57.15804573 -71.21447122 54.78552878 -74 52 C-85.77602956 47.39198843 -94.95108238 48.91480242 -103 59 Z M-65 55 C-64.34028272 58.43440497 -64.34028272 58.43440497 -63.4609375 61.81640625 C-62.29665081 67.33196776 -62.69501738 73.61115682 -65.40625 78.57421875 C-66.48359908 80.07081924 -67.58044275 81.55364097 -68.69921875 83.01953125 C-70.47404203 85.72173967 -70.4840463 87.85369904 -70 91 C-67.25789019 92.02827577 -67.25789019 92.02827577 -64 92 C-61.86512406 89.96442062 -60.54984121 88.41819195 -59 86 C-58.401875 85.154375 -57.80375 84.30875 -57.1875 83.4375 C-54.92865815 76.89874728 -54.76064125 70.24649636 -57.2421875 63.74609375 C-59.92880706 58.07314177 -59.92880706 58.07314177 -65 55 Z M112 57 C112.33 58.65 112.66 60.3 113 62 C115.31 62.33 117.62 62.66 120 63 C120.86358623 61.21858253 120.86358623 61.21858253 121 59 C119.27062171 56.68721883 119.27062171 56.68721883 117 55 C114.67642489 54.81509993 114.67642489 54.81509993 112 57 Z M80 57 C80 57.66 80 58.32 80 59 C81.32 58.67 82.64 58.34 84 58 C82.68 57.67 81.36 57.34 80 57 Z M45 57 C34.88168565 64.76619224 34.88168565 64.76619224 30.125 75.9375 C30.05723147 77.29061156 30.00614419 78.64520639 30 80 C30.94101562 79.9278125 31.88203125 79.855625 32.8515625 79.78125 C34.09679687 79.6884375 35.34203125 79.595625 36.625 79.5 C37.85476563 79.4071875 39.08453125 79.314375 40.3515625 79.21875 C44 79 44 79 47.3359375 79.15625 C48.21507812 79.1046875 49.09421875 79.053125 50 79 C52.50906852 75.23639722 52.73508925 72.35231059 52 68 C49.71081477 61.50618146 49.71081477 61.50618146 45 57 Z M125 61 C124.66574265 63.62625139 124.66574265 63.62625139 125 66 C125.55429687 66.24234375 126.10859375 66.4846875 126.6796875 66.734375 C127.40414063 67.06953125 128.12859375 67.4046875 128.875 67.75 C129.59429688 68.07484375 130.31359375 68.3996875 131.0546875 68.734375 C133.3370674 70.21929686 134.00375898 71.50415408 135 74 C138.93075644 73.42547254 138.93075644 73.42547254 142 71 C142.58414702 67.62693382 142.58414702 67.62693382 142 64 C139.8272578 61.36983839 138.05326212 59.52663106 135 58 C130.68473331 57.62475942 127.98854654 57.66662117 125 61 Z M66 65 C64.70366379 66.06645115 64.70366379 66.06645115 64.9375 68.5625 C64.958125 69.366875 64.97875 70.17125 65 71 C66.32 71.33 67.64 71.66 69 72 C68.42547254 68.06924356 68.42547254 68.06924356 66 65 Z M32 89 C32.33 89.66 32.66 90.32 33 91 C33.66 91 34.32 91 35 91 C35 90.34 35 89.68 35 89 C34.01 89 33.02 89 32 89 Z M-80 98 C-79.8310727 102.85031402 -79.8310727 102.85031402 -77.375 106.875 C-74.22654013 108.36637573 -71.46807839 108.80732898 -68 109 C-67.34 108.34 -66.68 107.68 -66 107 C-66.12382471 104.83562238 -66.12382471 104.83562238 -66.75 102.5 C-66.93046875 101.7059375 -67.1109375 100.911875 -67.296875 100.09375 C-67.88977836 97.81341395 -67.88977836 97.81341395 -70 96 C-71.91006306 95.6823754 -71.91006306 95.6823754 -74 95.75 C-74.70125 95.74484375 -75.4025 95.7396875 -76.125 95.734375 C-78.2435669 95.84294485 -78.2435669 95.84294485 -80 98 Z " fill="#3100EF" transform="translate(633,266)"/>
    <path d="M0 0 C0.86454803 -0.00637985 1.72909607 -0.0127597 2.61984253 -0.01933289 C4.01675827 -0.02100212 4.01675827 -0.02100212 5.44189453 -0.02270508 C6.88267868 -0.02769768 6.88267868 -0.02769768 8.35256958 -0.03279114 C10.38510662 -0.03785479 12.41765197 -0.04019964 14.45019531 -0.04003906 C17.55564121 -0.04222292 20.66073037 -0.0603774 23.76611328 -0.0793457 C25.74137248 -0.08228028 27.71663337 -0.08426464 29.69189453 -0.08520508 C30.61912323 -0.09239059 31.54635193 -0.09957611 32.50167847 -0.10697937 C37.07127236 -0.09083548 40.51695238 0.1167195 44.69970703 2.14526367 C45.95783203 2.35151367 47.21595703 2.55776367 48.51220703 2.77026367 C64.01640254 6.06296071 82.15942808 17.7548338 90.85009766 30.88305664 C93.42768729 35.16361596 95.62502035 39.60310982 97.69970703 44.14526367 C98.13283203 45.08370117 98.56595703 46.02213867 99.01220703 46.98901367 C103.8585239 58.81972838 106.8287489 78.75813805 102.69970703 91.14526367 C102.57165033 93.12302829 102.47121233 95.1026388 102.38720703 97.08276367 C100.57305483 121.5873569 84.44100851 144.32829375 66.78857422 160.3605957 C61.48882662 164.88854743 55.68534781 168.59923538 49.69970703 172.14526367 C49.10609375 172.50096436 48.51248047 172.85666504 47.90087891 173.22314453 C43.53096926 175.79538912 39.20690915 177.56258238 34.43017578 179.19995117 C32.81089852 179.76055932 31.20219702 180.35700993 29.62548828 181.02807617 C22.97020376 183.7215705 16.08707772 183.68496294 9.00439453 183.93432617 C6.3171951 184.03556237 3.828018 184.27198498 1.15283203 184.66088867 C-2.74409902 185.20751701 -6.49806869 185.29253527 -10.42529297 185.27026367 C-11.45976562 185.27606445 -11.45976562 185.27606445 -12.51513672 185.28198242 C-16.26404004 185.27481435 -19.64180368 184.88145737 -23.30029297 184.14526367 C-24.65473147 184.06636434 -26.01057088 184.01003723 -27.36669922 183.96948242 C-28.09953125 183.94563477 -28.83236328 183.92178711 -29.58740234 183.8972168 C-31.10794681 183.85414558 -32.62887277 183.82295052 -34.14990234 183.8034668 C-37.66191135 183.67041271 -39.93972743 183.38618453 -42.89013672 181.41479492 C-44.30029297 179.14526367 -44.30029297 179.14526367 -44.24951172 176.59838867 C-43.21112121 173.91481156 -42.22150164 172.81311792 -40.11279297 170.89526367 C-34.51852223 164.79762297 -32.66485199 156.90141081 -30.30029297 149.14526367 C-30.06536133 148.38310547 -29.83042969 147.62094727 -29.58837891 146.83569336 C-26.68187103 137.34810783 -24.11385975 127.82645319 -21.92529297 118.14526367 C-20.33144396 111.19833591 -18.61586921 104.28563763 -16.85864258 97.37841797 C-16.44492118 95.72371328 -16.04406143 94.06578127 -15.65014648 92.40625 C-11.42521611 74.85268728 -5.39871202 57.95256724 4.58886719 42.84057617 C5.57686521 41.33273919 6.50790634 39.78792668 7.43017578 38.23901367 C12.07259014 30.8111507 18.620573 26.05689255 25.69970703 21.14526367 C26.73740234 20.41307617 27.77509766 19.68088867 28.84423828 18.92651367 C36.06321991 14.05587546 36.06321991 14.05587546 39.00830078 14.46948242 C39.56646484 14.69249023 40.12462891 14.91549805 40.69970703 15.14526367 C41.85259878 19.28211054 41.48646465 21.78499083 40.13720703 25.83276367 C39.76595703 26.96584961 39.39470703 28.09893555 39.01220703 29.26635742 C38.57479486 30.55935589 38.13728884 31.85232261 37.69970703 33.14526367 C37.19868916 34.65664538 36.69873437 36.16837981 36.19970703 37.68041992 C35.19474143 40.71787909 34.18364411 43.75314053 33.16455078 46.78588867 C32.92599365 47.49696777 32.68743652 48.20804688 32.44165039 48.94067383 C31.9243625 50.47772866 31.40411225 52.01378835 30.8815918 53.54907227 C30.61531982 54.33620605 30.34904785 55.12333984 30.07470703 55.93432617 C29.713125 56.99707764 29.713125 56.99707764 29.34423828 58.08129883 C28.47768119 60.85625097 27.88985561 63.66180545 27.29345703 66.50463867 C25.53502884 74.32501669 23.28216198 82.04842586 21.13720703 89.77026367 C20.1045585 93.52185381 19.21795162 97.28162421 18.38720703 101.08276367 C15.03603171 115.62755553 10.82763547 129.19791991 3.66894531 142.32885742 C2.62634179 144.2827542 1.65455464 146.26402175 0.68408203 148.25463867 C-4.71904294 159.10283426 -12.31068699 166.48552635 -22.30029297 173.14526367 C-22.30029297 174.13526367 -22.30029297 175.12526367 -22.30029297 176.14526367 C-13.59155653 178.2380608 -2.71547714 178.4818524 5.60986328 174.99682617 C7.69970703 174.14526367 7.69970703 174.14526367 11.02001953 173.23510742 C26.29872317 168.70988628 38.32368048 159.19566676 46.28320312 145.40087891 C47.94162707 142.31404434 49.54966085 139.20662963 51.13720703 136.08276367 C51.70415283 134.97602295 52.27109863 133.86928223 52.85522461 132.72900391 C54.48131464 129.53996619 56.09339891 126.34430253 57.69970703 123.14526367 C58.11027344 122.33347656 58.52083984 121.52168945 58.94384766 120.68530273 C62.659065 113.29168552 65.52559796 106.37834557 66.69970703 98.14526367 C66.99775513 96.70469787 67.31040102 95.26707895 67.63720703 93.83276367 C67.7910083 93.13521973 67.94480957 92.43767578 68.10327148 91.71899414 C68.51749223 89.93155446 68.96638858 88.15193849 69.44213867 86.37988281 C71.64978391 77.81786356 72.24120447 69.71838341 72.19970703 60.89526367 C72.19894165 60.21916046 72.19817627 59.54305725 72.1973877 58.84646606 C72.13461582 43.44802466 70.15553403 29.5607323 59.01220703 18.02026367 C54.96253607 14.07577897 50.96393745 12.054474 45.69970703 10.14526367 C45.02939453 9.8590918 44.35908203 9.57291992 43.66845703 9.27807617 C31.56465759 4.2348264 16.15201921 4.70828155 3.69970703 8.14526367 C2.49830078 8.46366211 1.29689453 8.78206055 0.05908203 9.11010742 C-25.6951427 16.3091603 -49.76251684 32.91961512 -63.30029297 56.14526367 C-64.41257445 57.86922318 -65.54582537 59.57834018 -66.67944336 61.28833008 C-78.23677844 78.81389494 -85.14715729 95.80449833 -81.96826172 116.98120117 C-81.40527831 120.11825505 -81.40527831 120.11825505 -80.20263672 122.82104492 C-78.91923673 126.12677218 -79.63064268 128.73004722 -80.30029297 132.14526367 C-81.29029297 132.47526367 -82.28029297 132.80526367 -83.30029297 133.14526367 C-88.35551507 128.93257859 -90.25162873 124.31545321 -92.30029297 118.14526367 C-92.55472168 117.42266357 -92.80915039 116.70006348 -93.07128906 115.95556641 C-95.13793376 109.72067721 -95.76187464 104.12929988 -95.67529297 97.58276367 C-95.68689453 96.70168945 -95.69849609 95.82061523 -95.71044922 94.9128418 C-95.68324105 88.76833084 -94.45569792 83.86102204 -92.30029297 78.14526367 C-91.71211276 76.08414066 -91.12832017 74.02175703 -90.55029297 71.95776367 C-81.89442517 43.97262718 -62.40166123 25.01225082 -37.30029297 11.14526367 C-33.09933387 9.05929688 -28.78809534 7.50204113 -24.30029297 6.14526367 C-22.69580124 5.58369157 -21.09160776 5.02126617 -19.48779297 4.45776367 C-15.46913239 3.14781354 -11.40811509 2.13680694 -7.30029297 1.14526367 C-4.5315938 0.22236395 -2.85779932 0.01433501 0 0 Z " fill="#3100EF" transform="translate(139.30029296875,70.854736328125)"/>
    <path d="M0 0 C2.06724013 0.01608558 4.13252607 0.00008397 6.19970703 -0.01904297 C13.48383103 -0.03092134 19.86886121 0.38755616 26.57080078 3.39111328 C27.50150391 3.77912109 28.43220703 4.16712891 29.39111328 4.56689453 C40.1252898 9.86120871 48.18312271 17.50818866 52.69189453 28.78955078 C56.43006005 39.85452072 56.85799674 50.56913126 56.88330078 62.14111328 C56.88867859 63.15955826 56.88867859 63.15955826 56.89416504 64.19857788 C56.92725345 75.85643428 56.92725345 75.85643428 54.57080078 79.39111328 C52.3004303 79.77638245 52.3004303 79.77638245 49.43432617 79.79174805 C48.3630397 79.80508682 47.29175323 79.8184256 46.18800354 79.83216858 C44.44582802 79.8323423 44.44582802 79.8323423 42.66845703 79.83251953 C40.88549477 79.85233131 40.88549477 79.85233131 39.06651306 79.87254333 C35.2554187 79.91357495 31.44456664 79.93514808 27.63330078 79.95361328 C23.82567933 79.97736443 20.01828748 80.00544361 16.21080017 80.0453949 C13.83812959 80.06982995 11.46533691 80.08462486 9.09254456 80.08900452 C7.48088661 80.10428444 7.48088661 80.10428444 5.83666992 80.11987305 C4.89005997 80.1241481 3.94345001 80.12842316 2.96815491 80.13282776 C0.30771019 80.23256504 0.30771019 80.23256504 -2.42919922 82.39111328 C-2.73310058 85.47810126 -2.84902418 88.36067256 -2.82763672 91.44970703 C-2.83194199 92.79984642 -2.83194199 92.79984642 -2.83633423 94.17726135 C-2.83837781 96.08294299 -2.83282745 97.98864547 -2.8203125 99.89428711 C-2.80428151 102.8136284 -2.82014146 105.73158124 -2.83935547 108.65087891 C-2.83737272 110.50049134 -2.8335284 112.35010291 -2.82763672 114.19970703 C-2.83370941 115.07477402 -2.8397821 115.949841 -2.84603882 116.85142517 C-2.83658234 117.66559402 -2.82712585 118.47976288 -2.81738281 119.31860352 C-2.81380264 120.39210304 -2.81380264 120.39210304 -2.81015015 121.48728943 C-2.30901395 123.99174598 -1.47905379 124.89734157 0.57080078 126.39111328 C4.14836764 126.39193863 4.14836764 126.39193863 7.57080078 125.39111328 C9.93409404 121.84617339 10.10834809 119.56643417 10.60595703 115.35205078 C10.73133095 114.32985947 10.73133095 114.32985947 10.85923767 113.28701782 C11.12482636 111.11421754 11.37978372 108.94035251 11.63330078 106.76611328 C11.89167484 104.5849276 12.15234933 102.40408796 12.41807556 100.2237854 C12.65797719 98.25074108 12.8900805 96.27675328 13.12182617 94.30273438 C13.57080078 91.39111328 13.57080078 91.39111328 14.57080078 90.39111328 C17.42002525 90.25279215 20.24326625 90.17794809 23.09423828 90.15283203 C23.95135406 90.14476028 24.80846985 90.13668854 25.69155884 90.12837219 C27.50903287 90.11451593 29.32653309 90.1038007 31.14404297 90.09594727 C33.92742062 90.078727 36.709613 90.03485521 39.49267578 89.99072266 C41.25568785 89.98059685 43.01871005 89.9720804 44.78173828 89.96533203 C45.61619476 89.94782394 46.45065125 89.93031586 47.31039429 89.91227722 C53.05108632 89.93388226 53.05108632 89.93388226 55.59741211 92.17407227 C57.11535509 95.63141869 56.96281346 99.0640029 56.88330078 102.76611328 C56.88652344 103.50861328 56.88974609 104.25111328 56.89306641 105.01611328 C56.84900459 109.55047506 56.13908473 113.09642802 54.57080078 117.39111328 C54.36082652 119.09683009 54.17309042 120.8054399 54.00830078 122.51611328 C52.22631166 132.81516853 43.83990892 141.44422433 35.57080078 147.39111328 C26.18298898 153.76123986 17.62662788 154.30644855 6.66210938 154.1184082 C4.07400295 154.07866246 1.49102663 154.09778564 -1.09716797 154.12353516 C-16.27337118 154.11643943 -26.71728708 150.09001238 -38.11669922 140.01611328 C-48.32119464 128.43263199 -50.04657421 115.02455766 -49.89013672 100.05517578 C-49.88774467 98.52110958 -49.88684857 96.9870404 -49.88735962 95.45297241 C-49.8842583 92.26435561 -49.86789295 89.07619697 -49.84082031 85.88769531 C-49.80666995 81.81603182 -49.79919831 77.74486475 -49.80071068 73.67307472 C-49.80016544 70.51593353 -49.78917639 67.35889919 -49.77470779 64.20179367 C-49.76838193 62.70040059 -49.76441086 61.19899554 -49.76292038 59.69758987 C-49.75855185 57.5999433 -49.74098138 55.50280859 -49.71972656 53.40527344 C-49.71210297 52.2164859 -49.70447937 51.02769836 -49.69662476 49.80288696 C-49.40748654 46.1141063 -48.5178493 42.91837982 -47.42919922 39.39111328 C-47.34430263 37.89293816 -47.29876238 36.39168202 -47.30419922 34.89111328 C-46.87923244 29.86105198 -45.05678129 25.98338696 -42.74169922 21.57861328 C-42.41476074 20.94439453 -42.08782227 20.31017578 -41.75097656 19.65673828 C-38.34512195 13.49329789 -33.61925023 9.9094527 -27.61669922 6.26611328 C-26.84712891 5.78916016 -26.07755859 5.31220703 -25.28466797 4.82080078 C-16.91050976 0.6279938 -9.30286939 -0.08607637 0 0 Z M0.44580078 27.95361328 C-3.44012268 33.00531378 -3.77022193 38.38918571 -3.74169922 44.57861328 C-3.7578125 45.28953125 -3.77392578 46.00044922 -3.79052734 46.73291016 C-3.79329478 49.67469432 -3.78460659 51.84214559 -2.15966797 54.35205078 C-0.10239165 55.58734537 1.17750183 55.82408052 3.57080078 55.82861328 C4.59173828 55.85761719 4.59173828 55.85761719 5.63330078 55.88720703 C7.67712407 55.51192494 7.67712407 55.51192494 9.29345703 53.95361328 C11.25179131 50.02496715 11.04440733 46.28311644 11.00830078 41.95361328 C11.02828125 41.10734375 11.04826172 40.26107422 11.06884766 39.38916016 C11.06557717 35.21274417 10.93348801 32.96902969 8.66845703 29.35986328 C5.60041247 26.48035777 4.04363683 25.3081456 0.44580078 27.95361328 Z " fill="#3100EF" transform="translate(952.42919921875,107.60888671875)"/>
    <path d="M0 0 C1.04220703 -0.01224609 2.08441406 -0.02449219 3.15820312 -0.03710938 C12.99084645 -0.05562659 20.67605822 1.49661641 29.375 6.0625 C30.04724609 6.40152344 30.71949219 6.74054688 31.41210938 7.08984375 C38.41243949 10.67521244 43.58423584 13.80194393 47.375 20.9375 C47.70435547 21.52015625 48.03371094 22.1028125 48.37304688 22.703125 C49.36822352 24.50750095 50.27921044 26.33799016 51.1875 28.1875 C51.71279297 29.25701904 52.23808594 30.32653809 52.77929688 31.4284668 C55.18648459 38.00124391 54.59687498 45.13292226 54.55078125 52.03515625 C54.55026171 53.57637023 54.55078305 55.11758488 54.55229187 56.65879822 C54.55220252 59.87720733 54.54184864 63.09536401 54.52368164 66.3137207 C54.50097666 70.42474705 54.5004579 74.53540587 54.50719929 78.6464777 C54.51055124 81.82506029 54.50388646 85.00356014 54.49407005 88.182127 C54.49024034 89.69747929 54.48906052 91.21284081 54.4906559 92.7281971 C54.49102958 94.85030583 54.47832342 96.97195495 54.4621582 99.09399414 C54.45524712 100.89979698 54.45524712 100.89979698 54.44819641 102.74208069 C54.16747317 106.45217884 53.2923937 109.64348399 52.1875 113.1875 C51.91097522 115.07964642 51.66000702 116.97574366 51.4375 118.875 C49.90499132 128.28224557 46.08094434 136.73117887 38.44140625 142.66015625 C31.13640385 147.61033985 24.84922226 150.7160192 16.0234375 151.81640625 C13.47465178 152.14992504 11.15921784 152.69237756 8.6875 153.375 C0.73161501 155.21208617 -7.13880213 153.46118826 -14.8125 151.1875 C-16.31243789 151.16259328 -17.81245409 151.14221364 -19.3125 151.125 C-28.25574917 150.29084373 -36.5471896 144.81616096 -42.4453125 138.26171875 C-47.98584903 130.05313788 -49.52855191 121.77997165 -50.8125 112.1875 C-50.98392517 111.40092514 -51.15535034 110.61435028 -51.33197021 109.80393982 C-51.83232926 107.0795315 -51.95316853 104.56176148 -51.97363281 101.79321289 C-51.98324036 100.73763687 -51.9928479 99.68206085 -52.00274658 98.59449768 C-52.00699646 97.46116501 -52.01124634 96.32783234 -52.015625 95.16015625 C-52.02132507 93.97965195 -52.02702515 92.79914764 -52.03289795 91.58287048 C-52.04233933 89.08219292 -52.0488785 86.58150296 -52.05273438 84.08081055 C-52.06238482 80.29518196 -52.0933945 76.51010935 -52.125 72.72460938 C-52.17671069 60.78319312 -52.10131065 49.73473475 -48.8125 38.1875 C-48.48128653 36.42007119 -48.16561596 34.64955609 -47.875 32.875 C-45.98091988 23.46619552 -41.49585407 14.65318201 -33.6875 8.875 C-32.264375 8.0396875 -32.264375 8.0396875 -30.8125 7.1875 C-30.214375 6.671875 -29.61625 6.15625 -29 5.625 C-20.41313434 -0.01779744 -9.89498052 0.00605198 0 0 Z M-3.125 29 C-6.34330351 33.17187492 -5.97247944 37.40299225 -5.98950195 42.43505859 C-5.99607315 43.27602585 -6.00264435 44.1169931 -6.00941467 44.98344421 C-6.02913276 47.76760954 -6.04080572 50.55172102 -6.05078125 53.3359375 C-6.05485678 54.28677845 -6.0589323 55.2376194 -6.06313133 56.21727371 C-6.08398372 61.24803703 -6.09829017 66.27877313 -6.10766602 71.30957031 C-6.11874074 76.50727465 -6.15315527 81.70455209 -6.19283772 86.90210533 C-6.21896775 90.89810996 -6.22735454 94.8940122 -6.23094749 98.89009476 C-6.23582124 100.80625931 -6.2474576 102.72241904 -6.26598549 104.63850021 C-6.29030468 107.31973014 -6.2894255 109.99984615 -6.2824707 112.68115234 C-6.29528076 113.47197708 -6.30809082 114.26280182 -6.32128906 115.07759094 C-6.28594711 118.81632828 -5.94088937 120.98280635 -3.93547058 124.18008423 C-1.97946925 126.35469648 -1.97946925 126.35469648 0.625 126.8125 C4.3315556 125.90846205 5.832482 124.13127249 8.1875 121.1875 C9.41557288 116.9453982 9.33548342 112.66059736 9.33276367 108.27954102 C9.33612228 107.49840942 9.3394809 106.71727783 9.34294128 105.91247559 C9.35241464 103.33876949 9.35439246 100.76512868 9.35546875 98.19140625 C9.35868344 96.39688592 9.36204768 94.60236585 9.36555481 92.80784607 C9.37153674 89.04954419 9.37339563 85.29126528 9.37280273 81.53295898 C9.37270107 76.72340955 9.3863615 71.91400761 9.40357494 67.10449314 C9.41470625 63.39925971 9.41672161 59.69406184 9.41619301 55.9888134 C9.4173711 54.21584502 9.42178327 52.44287565 9.42952538 50.66992378 C9.43934969 48.18812916 9.43643782 45.70665355 9.43041992 43.22485352 C9.43884918 42.1328791 9.43884918 42.1328791 9.44744873 41.0188446 C9.4149698 35.73355232 9.04366863 31.04366863 5.1875 27.1875 C1.49868728 26.70635052 -0.15428586 26.67160243 -3.125 29 Z " fill="#3100EF" transform="translate(588.8125,103.8125)"/>
    <path d="M0 0 C1.31684532 0.02830147 1.31684532 0.02830147 2.66029358 0.05717468 C4.51895441 0.09908788 6.37755329 0.14382838 8.23608398 0.19116211 C11.08239443 0.26134245 13.92872307 0.31569017 16.77539062 0.36914062 C18.57945028 0.41179043 20.38348803 0.45537904 22.1875 0.5 C23.46728981 0.52203239 23.46728981 0.52203239 24.77293396 0.54450989 C28.70470139 0.65886328 30.82006112 0.72248866 34.16015625 2.94921875 C34.56056595 4.80785084 34.56056595 4.80785084 34.59649658 7.11470032 C34.61707878 7.99109728 34.63766098 8.86749424 34.65886688 9.77044868 C34.66605995 10.73734564 34.67325302 11.70424259 34.68066406 12.70043945 C34.69937813 13.72052031 34.71809219 14.74060116 34.73737335 15.79159355 C34.79503557 19.21518879 34.82980554 22.63858825 34.86328125 26.0625 C34.8966353 28.49059253 34.9305206 30.91867782 34.96490479 33.34675598 C35.31424034 60.56603885 35.18128466 87.78608804 34.956429 115.00565064 C34.91182368 120.56241755 34.88406563 126.11919077 34.85921073 131.67607611 C34.83106042 137.78452816 34.78663187 143.89275805 34.73590851 150.00106239 C34.71676844 152.56355987 34.70244436 155.12609818 34.6931076 157.68865013 C34.67888278 161.21483209 34.64609167 164.74035943 34.60839844 168.26635742 C34.60826248 169.31152527 34.60812653 170.35669312 34.60798645 171.43353271 C34.59400314 172.38614487 34.58001984 173.33875702 34.56561279 174.32023621 C34.55970501 175.14700458 34.55379723 175.97377295 34.54771042 176.8255949 C34.06106497 179.49219476 33.35045245 180.37829837 31.16015625 181.94921875 C28.13401066 182.23567884 25.31817162 182.34551961 22.29296875 182.3125 C21.42123016 182.3129985 20.54949158 182.31349701 19.65133667 182.31401062 C17.80708539 182.31167023 15.96283091 182.30194371 14.11865234 182.28540039 C11.30276731 182.26186594 8.48783302 182.26483251 5.671875 182.27148438 C3.87890063 182.26590543 2.08593024 182.25879419 0.29296875 182.25 C-0.54676483 182.25091141 -1.38649841 182.25182281 -2.25167847 182.25276184 C-6.47516728 182.20185148 -10.09554648 182.14631988 -13.83984375 179.94921875 C-15.00632209 176.44978373 -15.00843993 173.63924453 -15.02734375 169.94921875 C-15.04152344 168.71171875 -15.05570313 167.47421875 -15.0703125 166.19921875 C-14.99671002 163.11941091 -14.51275918 160.35971735 -13.83154297 157.35961914 C-12.44290019 149.86507278 -12.63345527 142.42266633 -12.71411324 134.83085823 C-12.76372488 130.06298714 -12.77683909 125.29492768 -12.79638672 120.52685547 C-12.80147153 119.51349782 -12.80655634 118.50014017 -12.81179523 117.45607471 C-12.86598087 105.42312141 -12.7645173 93.39178769 -12.65625 81.359375 C-12.64632397 80.24016033 -12.63639793 79.12094566 -12.62617111 77.9678154 C-12.57534763 72.28475666 -12.52233001 66.60172288 -12.4675293 60.91870117 C-12.41131471 55.05864237 -12.36156942 49.19854551 -12.31312656 43.33841801 C-12.27432251 38.7686185 -12.23123003 34.19886693 -12.186903 29.62911797 C-12.16660336 27.46376388 -12.14787088 25.29839448 -12.13076973 23.13301277 C-12.10676274 20.14728661 -12.07673934 17.16167977 -12.04516602 14.17602539 C-12.03941055 13.29483536 -12.03365509 12.41364532 -12.02772522 11.50575256 C-12.0179364 10.69573792 -12.00814758 9.88572327 -11.99806213 9.05116272 C-11.99160958 8.35114167 -11.98515703 7.65112062 -11.97850895 6.92988682 C-11.82975652 4.80513462 -11.52709986 2.9671832 -10.83984375 0.94921875 C-7.47698873 -0.73220876 -3.69048808 -0.08958898 0 0 Z " fill="#3100EF" transform="translate(853.83984375,76.05078125)"/>
    <path d="M0 0 C0.88022827 0.00404846 1.76045654 0.00809692 2.6673584 0.01226807 C4.0210553 0.00939789 4.0210553 0.00939789 5.40209961 0.00646973 C7.31197386 0.00510748 9.22185736 0.00880669 11.13171387 0.01715088 C14.0617749 0.02784986 16.99122278 0.01725696 19.92126465 0.00445557 C21.77413059 0.00577715 23.62699615 0.00833953 25.4798584 0.01226807 C26.80020081 0.00619537 26.80020081 0.00619537 28.1472168 0 C34.3436918 0.04797647 34.3436918 0.04797647 36.5736084 2.27789307 C37.68370045 5.47361843 37.70162993 8.51236628 37.70732117 11.87489319 C37.71158615 13.01460068 37.71585114 14.15430817 37.72024536 15.32855225 C37.71979218 16.57487427 37.71933899 17.82119629 37.71887207 19.10528564 C37.72223068 20.4211113 37.72558929 21.73693695 37.72904968 23.09263611 C37.73788024 26.70019687 37.74022743 30.3077339 37.74086547 33.91530442 C37.74157662 36.17073389 37.74371218 38.42615734 37.74636269 40.68158531 C37.75561363 48.55459348 37.75969797 56.42758472 37.75891113 64.30059814 C37.7583107 71.63166161 37.76885634 78.9626514 37.7846548 86.29369622 C37.79774586 92.59362534 37.80309436 98.89353043 37.80245572 105.19347304 C37.80220116 108.95347444 37.80502941 112.71341039 37.81563377 116.47339821 C37.82534091 120.01187866 37.82537609 123.55023146 37.81811714 127.08871651 C37.816579 128.99936672 37.82490016 130.91001698 37.83355713 132.82064819 C37.81210697 138.6922502 37.61088009 143.74618952 35.5736084 149.27789307 C31.68560573 150.53806852 27.77905205 150.43966811 23.7376709 150.44586182 C22.60221329 150.45085442 22.60221329 150.45085442 21.44381714 150.45594788 C19.84515997 150.46100112 18.2464923 150.4633567 16.64782715 150.4631958 C14.2140547 150.46537921 11.78073805 150.48354308 9.3470459 150.50250244 C7.78975577 150.5054374 6.23246351 150.50742151 4.6751709 150.50836182 C3.95310455 150.51554733 3.23103821 150.52273285 2.48709106 150.53013611 C-1.85135956 150.51071723 -5.43485913 150.01213196 -9.4263916 148.27789307 C-10.8119981 145.50668008 -10.29787545 143.57273298 -9.9997406 140.49473572 C-9.40954296 133.58564211 -9.268223 126.73971728 -9.25280762 119.80841064 C-9.24254448 117.84940398 -9.23227911 115.89039732 -9.22192848 113.93139112 C-9.21179378 111.85555298 -9.2038949 109.77971689 -9.19659615 107.70386696 C-9.18098319 103.36299951 -9.15704453 99.02220134 -9.13169861 94.68138123 C-9.06088949 82.34893163 -9.00045415 70.01644663 -8.94958496 57.68389893 C-8.92132195 50.8494402 -8.88598583 44.01505475 -8.84293121 37.18067282 C-8.81615525 32.86345624 -8.79825505 28.54632213 -8.78689396 24.22903883 C-8.77566079 20.92731327 -8.75153483 17.6257055 -8.72937012 14.32403564 C-8.72878098 13.12670303 -8.72819183 11.92937042 -8.72758484 10.695755 C-8.71786652 9.60953857 -8.70814819 8.52332214 -8.69813538 7.40419006 C-8.69390344 6.45687924 -8.6896715 5.50956842 -8.68531132 4.53355122 C-8.08640384 -0.68401412 -4.37420384 0.03386746 0 0 Z " fill="#3100EF" transform="translate(787.4263916015625,107.72210693359375)"/>
    <path d="M0 0 C4.9884097 1.92734011 7.14383991 5.67495758 10 10 C14.11920268 8.54616376 17.38918279 6.43337681 21 4 C27.06816836 1.97727721 34.27467943 2.19249761 40.375 4 C47.8479489 9.69367535 51.45466903 16.44871481 55 25 C55.65405042 26.33956719 56.31605902 27.67544462 57 29 C59.08652237 26.46636569 61.01419254 23.97719055 62.75 21.1875 C69.41102357 11.75104995 78.25184537 5.36730778 89.51171875 2.3203125 C101.41854474 0.78756567 114.16673407 1.03406662 124.06640625 8.375 C130.46823892 13.75512604 133.93075272 20.27907011 135.45703125 28.4453125 C135.91114715 35.01415177 133.56895692 39.67548617 130.41015625 45.3359375 C128.83718731 48.30758519 128 50.64838885 128 54 C128.721875 54.226875 129.44375 54.45375 130.1875 54.6875 C133.88575617 56.41335288 135.63093942 57.61562775 138 61 C138.91961944 65.8314335 139.16300617 70.62152121 136.9609375 75.125 C133.26421214 79.75106972 128.13523002 83.14070392 123 86 C122.0409375 86.53882813 121.081875 87.07765625 120.09375 87.6328125 C109.99378645 91.80556739 92.38311349 91.21924617 82.1953125 87.60546875 C78.85102363 86.09781484 75.91360522 84.23823759 73 82 C71.98035156 81.22269531 70.96070313 80.44539063 69.91015625 79.64453125 C61.31425892 71.83322589 56.64200186 60.10666803 54 49 C53.38125 49.66 52.7625 50.32 52.125 51 C45.38612902 57.70069041 37.42276731 65.15170998 27.6875 66.4375 C25 66 25 66 23.125 64.8125 C21.65218861 62.43963721 21.77776806 60.74086056 22 58 C25 57 25 57 27.375 58 C29.92226948 59.12513734 29.92226948 59.12513734 32.5 59.125 C36.48510754 57.33170161 38.07621065 53.80318357 40 50 C42.41463753 42.75608741 42.13316356 33.37104791 39.0625 26.375 C36.16167646 21.44442175 32.38934374 18.80566047 27 17 C22.32015644 16.53577222 22.32015644 16.53577222 18 18 C17.41036322 20.24224658 17.41036322 20.24224658 18 23 C19.64450618 24.68766907 21.38278252 26.06828085 23.2734375 27.47265625 C26.02715531 29.90863739 26.85579003 32.05431541 27.40625 35.6640625 C27.6535497 43.47461145 26.43596656 49.16789013 21 55 C13.49308064 60.6817076 1.95566855 60.1936511 -7 59 C-10.63880603 57.92860121 -13.12750435 56.45024474 -16 54 C-16.71542969 53.40703125 -17.43085937 52.8140625 -18.16796875 52.203125 C-24.14543906 46.75916297 -27.51988264 41.55111243 -28.375 33.4453125 C-28.71282946 22.95148504 -27.03896852 14.94559773 -20 7 C-13.88640264 2.0224727 -8.0434105 -1.7421962 0 0 Z M79 15 C76.66608797 17.78114056 76.66608797 17.78114056 77.375 20.6875 C77.58125 21.450625 77.7875 22.21375 78 23 C79.16571533 23.02505615 80.33143066 23.0501123 81.5324707 23.07592773 C85.85436131 23.17004691 90.1760929 23.27025669 94.49780273 23.37231445 C96.36885866 23.41564622 98.23995369 23.45732257 100.11108398 23.49731445 C102.79943631 23.55505949 105.48759215 23.61874181 108.17578125 23.68359375 C109.01337479 23.70030624 109.85096832 23.71701874 110.71394348 23.73423767 C114.03673288 23.81914061 116.82752018 23.94250673 120 25 C120.495 26.485 120.495 26.485 121 28 C120.401875 28.226875 119.80375 28.45375 119.1875 28.6875 C116.40647027 30.35611784 115.51879218 32.16952367 114 35 C113.34 35.99 112.68 36.98 112 38 C110.0546875 38.29296875 110.0546875 38.29296875 107.875 38.1875 C106.59625 38.125625 105.3175 38.06375 104 38 C103.67 37.01 103.34 36.02 103 35 C101.68 35.33 100.36 35.66 99 36 C98.55889641 40.70149229 98.55889641 40.70149229 100.3125 44.875 C104.51314572 47.67543048 109.15399687 47.44130269 114 47 C119.37854587 45.20715138 123.11549073 41.83248956 126 37 C127.79169445 31.54528578 127.17394481 26.44119375 125.14453125 21.140625 C122.0277208 15.31123208 117.12247719 11.33593957 111 9 C107.03609407 8.49414356 103.11736835 8.44479422 99.125 8.4375 C97.54912109 8.38239258 97.54912109 8.38239258 95.94140625 8.32617188 C88.62574236 8.28496976 84.1238743 9.65130769 79 15 Z M-18 19 C-20.09257489 23.18514977 -19.42165626 28.44122363 -19 33 C-17.67838573 36.06873898 -17.67838573 36.06873898 -15 38 C-14.21302734 38.67482422 -14.21302734 38.67482422 -13.41015625 39.36328125 C-7.47220193 43.81988544 -1.23081639 44 6 44 C6.7425 44 7.485 44 8.25 44 C11.5369965 43.77331059 12.97588422 43.02164236 15.4375 40.8125 C17.23952711 37.5688512 17.41539954 35.65551596 17 32 C16.01732141 30.79438816 16.01732141 30.79438816 14.15234375 30.90234375 C12.1015625 30.93489583 10.05078125 30.96744792 8 31 C7.6596875 29.329375 7.6596875 29.329375 7.3125 27.625 C6.39740264 23.93704367 6.39740264 23.93704367 3.8125 22.625 C0.90657425 21.91565759 0.90657425 21.91565759 -2.5 21.6875 C-6.778937 20.84699452 -8.14370818 19.18272517 -11 16 C-13.93411131 16 -15.59891446 17.39927631 -18 19 Z M73 29 C69.42614095 34.7530414 69.85973993 42.50504471 71 49 C74.10073708 58.47862534 79.50059244 67.87143231 87.75 73.625 C88.54921875 74.19476563 89.3484375 74.76453125 90.171875 75.3515625 C97.10770696 79.39427119 103.13553982 80.50338011 111.125 80.4375 C111.99253906 80.45748047 112.86007812 80.47746094 113.75390625 80.49804688 C120.44673037 80.4929534 124.18937794 78.81062206 129 74 C129.62587425 68.62881301 129.62587425 68.62881301 127.5 64 C126.7575 63.505 126.7575 63.505 126 63 C123.72761793 64.05503453 121.92535422 65.06298238 120 66.6875 C118 68 118 68 115.9375 68.125 C112.81645401 66.31277975 112.27953656 63.25700216 111 60 C108.49371401 58.74685701 106.29897307 58.87605419 103.5402832 58.81152344 C96.23496459 58.60395322 90.59354258 58.16327008 85 53 C84.12988281 52.27425781 83.25976562 51.54851562 82.36328125 50.80078125 C79.384013 47.26997904 79.22837965 44.99972185 78.875 40.4375 C78.47900352 34.07435592 78.47900352 34.07435592 75 29 C74.34 29 73.68 29 73 29 Z " fill="#3100EF" transform="translate(844,299)"/>
    <path d="M0 0 C1.09860603 -0.00287018 1.09860603 -0.00287018 2.21940613 -0.00579834 C3.76679834 -0.00715681 5.31420208 -0.00348396 6.86157227 0.00488281 C9.21201687 0.01554133 11.56168917 0.00500036 13.91210938 -0.0078125 C15.42057458 -0.00648994 16.92903932 -0.00392557 18.4375 0 C19.48004692 -0.00607269 19.48004692 -0.00607269 20.5436554 -0.01226807 C25.22110096 0.03192438 29.01879621 0.82416506 33.41796875 2.265625 C34.32253015 6.14438427 34.58222122 9.78564821 34.60546875 13.765625 C34.61964844 14.8690625 34.63382813 15.9725 34.6484375 17.109375 C34.40203474 20.4838399 33.90427058 23.77932317 31.41796875 26.265625 C28.41158625 26.37919224 25.42904433 26.42981412 22.421875 26.43359375 C21.06605568 26.43858635 21.06605568 26.43858635 19.68284607 26.44367981 C17.76700348 26.44875296 15.85115203 26.45108802 13.93530273 26.45092773 C10.99643457 26.45311313 8.05794223 26.47126165 5.11914062 26.49023438 C3.26172004 26.49316837 1.40429766 26.49515313 -0.453125 26.49609375 C-1.33649033 26.50327927 -2.21985565 26.51046478 -3.12998962 26.51786804 C-9.35320986 26.49444639 -9.35320986 26.49444639 -11.58203125 24.265625 C-11.80908203 22.01904297 -11.80908203 22.01904297 -11.77734375 19.2578125 C-11.77089844 18.27167969 -11.76445313 17.28554687 -11.7578125 16.26953125 C-11.74105469 15.23699219 -11.72429688 14.20445313 -11.70703125 13.140625 C-11.69800781 12.10035156 -11.68898438 11.06007813 -11.6796875 9.98828125 C-11.65606872 7.41383408 -11.62313274 4.83984288 -11.58203125 2.265625 C-7.88013967 -0.11978842 -4.25748129 -0.02458444 0 0 Z " fill="#3100EF" transform="translate(790.58203125,73.734375)"/>
    <path d="M0 0 C3.68330059 2.01053526 6.76604014 4.92793246 8 9 C8.6879834 14.27453941 7.18688757 16.84738892 4 21 C2.06845515 22.93154485 -1.3110177 22.21854009 -3.875 22.25 C-5.75832031 22.28867188 -5.75832031 22.28867188 -7.6796875 22.328125 C-11 22 -11 22 -12.8671875 20.625 C-15.25285774 17.20279717 -16.01407206 14.77396332 -15.9375 10.5625 C-14.76192992 6.09533368 -13.20335403 4.28148461 -10 1 C-6.76755038 -0.61622481 -3.49426864 -0.58454308 0 0 Z " fill="#3100EF" transform="translate(249,232)"/>
    <path d="M0 0 C3.31625105 2.09816653 6.22855477 4.45710954 8 8 C8.3506291 13.34709374 8.44403637 16.62872307 5 21 C0.52882948 23.23558526 -5.15724549 22.59860995 -10 22 C-12.2352901 20.93682108 -13.09675848 20.13870246 -14.38671875 18.046875 C-15.72171252 13.591227 -15.31478123 9.41390843 -14 5 C-10.90514832 0.06095589 -5.52414982 -1.54038793 0 0 Z " fill="#3100EF" transform="translate(293,232)"/>
    <path d="M0 0 C4.14885965 3.32554509 6.72835176 6.39727537 7.625 11.6875 C6.95885777 15.2180538 6.29073276 17.23532253 4 20 C-0.02027815 22.41216689 -4.4268116 22.62823598 -9 22 C-11.36293002 20.84367254 -13.14983755 19.85016245 -15 18 C-15.17858965 15.90083974 -15.26798477 13.79377312 -15.3125 11.6875 C-15.34988281 10.53636719 -15.38726562 9.38523438 -15.42578125 8.19921875 C-14.91892347 4.39081026 -13.95501885 3.34857841 -11 1 C-7.27618345 -1.69655682 -4.30926688 -1.31469159 0 0 Z " fill="#3100EF" transform="translate(338,233)"/>
</svg>
