<svg width="350" height="187" viewBox="0 0 350 187" fill="none" xmlns="http://www.w3.org/2000/svg">
    <g id="NotFound">
        <g id="Group">
            <path id="Vector"
                d="M270.279 178.315C267.776 181.561 264.835 183.973 265.48 185.069C265.48 185.069 266.812 186.038 270.489 186.038C276.793 186.038 282.987 185.558 281.969 184.919C280.56 184.034 276.479 183.714 272.579 182.364C271.615 182.03 274.688 180.163 273.849 179.858C272.112 179.225 270.759 178.678 270.279 178.315Z"
                fill="#002E4F" />
            <path id="Vector_2"
                d="M335.225 184.875C335.225 184.875 336.053 186.037 339.232 186.037C344.682 186.037 350.363 185.297 349.484 184.744C348.265 183.98 338.712 181.986 338.712 181.986L336.57 179.326L332.937 181.336L335.225 184.875Z"
                fill="#002E4F" />
            <g id="Group_2">
                <path id="Vector_3"
                    d="M317.957 104.551C314.048 104.551 311.092 103.77 310.845 103.703C308.806 103.146 307.604 101.043 308.16 99.004C308.715 96.967 310.811 95.768 312.848 96.315C312.982 96.35 321.588 98.555 326.612 94.245C329.974 91.358 331.252 85.923 330.409 78.088L330.14 75.589L337.879 71.204C339.721 70.162 342.055 70.808 343.096 72.647C344.138 74.486 343.492 76.822 341.653 77.863L338.231 79.802C338.772 89.03 336.53 95.848 331.552 100.091C327.355 103.666 322.117 104.551 317.957 104.551Z"
                    fill="#00A4E2" />
            </g>
            <g id="Group_3">
                <path id="Vector_4"
                    d="M331.202 83.314C331.056 88.88 329.578 92.908 326.772 95.314C321.261 100.044 311.823 97.632 311.661 97.589C309.424 96.985 307.123 98.306 306.514 100.54C305.904 102.778 307.223 105.089 309.461 105.7C309.733 105.772 312.982 107.393 317.27 107.241C333.554 106.663 343.382 92.616 343.564 84.427L331.202 83.314Z"
                    fill="#E1F3F6" />
            </g>
            <g id="Group_4">
                <path id="Vector_5"
                    d="M308.811 63.835C307.352 63.181 305.918 62.473 304.506 61.73C291.013 69.414 273.774 79.258 273.432 79.601C273.432 79.601 282 93.244 282.548 93.791C282.9 94.143 304.146 78.902 319.43 67.859C315.904 66.494 312.268 65.385 308.811 63.835Z"
                    fill="#008DC4" />
                <path id="Vector_6"
                    d="M309.032 63.443C312.565 65.002 316.277 66.133 319.869 67.545C328.284 61.464 334.789 56.731 334.789 56.731L320.406 52.689C320.406 52.689 313.485 56.618 304.958 61.473C306.296 62.171 307.651 62.833 309.032 63.443Z"
                    fill="#00AFE2" />
                <path id="Vector_7" d="M284.238 45.533L292.706 68.458L309.26 74.533L288.291 36.229L284.238 45.533Z"
                    fill="#006091" />
                <path id="Vector_8" d="M310.161 80.1639H297.896L308.813 99.2339L325.454 106.25L310.161 80.1639Z"
                    fill="#006091" />
                <path id="Vector_9"
                    d="M325.454 106.25L315.69 89.594L273.92 114.082L265.706 100.07L270.864 16.766L289.635 5.76196L323.42 63.394L334.788 56.73L344.242 72.856L332.874 79.52L342.638 96.175L325.454 106.25ZM287.561 41.612L286.504 42.232L283.633 86.719L306.236 73.468L287.561 41.612Z"
                    fill="#0076AD" />
                <path id="Vector_10"
                    d="M251.821 96.2579L265.707 100.07L273.921 114.082L259.249 110.365L251.821 96.2579Z"
                    fill="#008DC4" />
                <path id="Vector_11" d="M251.821 96.258L265.707 100.07L270.865 16.7661L258.125 13.717L251.821 96.258Z"
                    fill="#00AFE2" />
                <path id="Vector_12" d="M258.125 13.717L270.865 16.766L289.636 5.76198L276.734 2.01099L258.125 13.717Z"
                    fill="#00D2FD" />
            </g>
            <path id="Vector_13"
                d="M286.06 129.453C286.06 129.453 288.101 151.467 288.101 159.178C288.101 159.178 272.072 171.672 268.147 178.207C269.833 179.49 273.165 181.193 275.347 181.127C286.042 170.914 297.782 163.625 297.782 163.625C297.782 163.625 302.846 148.935 304.423 136.498L286.06 129.453Z"
                fill="#002E4F" />
            <path id="Vector_14"
                d="M297.485 130.492C301.094 130.517 304.783 129.896 307.887 128.211C306.845 123.815 309.065 110.844 311.852 103.912C311.852 103.912 314.05 99.086 312.509 97.603C306.807 92.119 301.954 92.568 300.445 92.507C295.211 96.925 285.471 109.964 285.862 127.196C288.553 130.023 294.016 130.469 297.485 130.492Z"
                fill="#E1F3F6" />
            <path id="Vector_15"
                d="M332.844 181.941C334.931 181.361 336.932 180.396 338.216 178.689C332.027 168.65 309.329 131.777 308.1 128.89C308.069 128.816 308.04 128.73 308.011 128.646C304.678 130.443 300.701 131.076 296.845 130.927C293.487 130.798 288.625 130.327 285.883 127.841C285.89 128.019 285.891 128.195 285.9 128.374C286.374 137.999 318.301 170.091 330.866 182.362C331.557 182.262 332.228 182.111 332.844 181.941Z"
                fill="#00396A" />
            <g id="Group_5">
                <path id="Vector_16"
                    d="M266.935 120.512C266.048 120.512 265.197 120.385 264.383 120.112C262.695 119.548 260.462 118.126 259.407 114.567C258.806 112.54 259.962 110.409 261.989 109.809C264.015 109.207 266.144 110.366 266.745 112.391C266.816 112.627 266.882 112.778 266.929 112.866C267.337 112.884 268.853 112.751 272.542 110.583C275.838 108.648 279.737 105.763 283.508 102.974C289.879 98.259 295.897 93.808 300.866 92.236C302.88 91.597 305.031 92.7161 305.669 94.7301C306.307 96.7461 305.19 98.896 303.176 99.533C299.423 100.721 293.647 104.996 288.06 109.127C279.882 115.176 272.67 120.512 266.935 120.512Z"
                    fill="#00A4E2" />
            </g>
            <g id="Group_6">
                <path id="Vector_17"
                    d="M274.096 117.65C273.627 115.396 273.136 112.908 271.709 111.056C268.624 112.765 267.306 112.88 266.93 112.865C266.883 112.777 266.818 112.627 266.746 112.39C266.145 110.365 264.017 109.206 261.99 109.808C259.963 110.408 258.807 112.538 259.408 114.566C260.463 118.125 262.696 119.546 264.384 120.111C265.198 120.384 266.049 120.511 266.936 120.511C269.16 120.511 271.606 119.706 274.245 118.37C274.194 118.131 274.145 117.891 274.096 117.65Z"
                    fill="#00A4E2" />
                <path id="Vector_18"
                    d="M305.67 94.7279C305.032 92.7139 302.881 91.595 300.867 92.234C295.897 93.806 289.88 98.2569 283.509 102.972C279.738 105.761 275.839 108.646 272.543 110.581C272.393 110.671 272.251 110.749 272.107 110.831C273.538 112.722 276.014 122.046 276.058 122.259C280.116 120.136 299.581 105.318 303.801 100.845C305.253 99.309 306.308 96.7439 305.67 94.7279Z"
                    fill="#E1F3F6" />
            </g>
            <g id="Group_7">
                <path id="Vector_19"
                    d="M261.523 117.42C261.296 117.42 261.068 117.352 260.87 117.211C257.867 115.065 256.301 110.934 256.235 110.76C256.018 110.178 256.313 109.53 256.896 109.311C257.477 109.096 258.126 109.389 258.343 109.971C258.358 110.008 259.741 113.639 262.178 115.379C262.684 115.74 262.801 116.443 262.44 116.947C262.221 117.256 261.875 117.42 261.523 117.42Z"
                    fill="#00A4E2" />
            </g>
            <g id="Group_8">
                <path id="Vector_20"
                    d="M261.525 114.676C261.171 114.676 260.824 114.51 260.605 114.199C259.168 112.164 258.017 107.328 257.89 106.785C257.75 106.18 258.126 105.574 258.732 105.433C259.339 105.288 259.943 105.669 260.084 106.275C260.401 107.636 261.442 111.48 262.443 112.9C262.802 113.408 262.681 114.111 262.173 114.468C261.977 114.609 261.75 114.676 261.525 114.676Z"
                    fill="#00A4E2" />
            </g>
            <g id="Group_9">
                <path id="Vector_21"
                    d="M263.078 114.043C262.634 114.043 262.213 113.779 262.035 113.342C261.004 110.815 260.601 105.514 260.585 105.289C260.539 104.67 261.004 104.131 261.624 104.084C262.247 104.033 262.783 104.504 262.83 105.123C262.935 106.555 263.375 110.668 264.119 112.492C264.354 113.068 264.078 113.724 263.503 113.959C263.363 114.016 263.22 114.043 263.078 114.043Z"
                    fill="#00A4E2" />
            </g>
            <g id="Group_10">
                <path id="Vector_22"
                    d="M264.767 113.5C264.265 113.5 263.809 113.164 263.677 112.656C262.969 109.906 263.614 107.101 263.643 106.984C263.786 106.379 264.394 106.005 264.997 106.146C265.601 106.289 265.976 106.894 265.835 107.499C265.823 107.552 265.296 109.909 265.858 112.093C266.013 112.696 265.65 113.31 265.048 113.464C264.954 113.49 264.859 113.5 264.767 113.5Z"
                    fill="#00A4E2" />
            </g>
            <g id="Group_11">
                <path id="Vector_23"
                    d="M310.02 100.846C309.504 100.846 308.981 100.735 308.484 100.5C306.685 99.6499 305.917 97.5019 306.767 95.7049C307.656 93.8239 309.26 91.898 309.441 91.683C310.725 90.163 312.996 89.9719 314.516 91.2549C316.036 92.5359 316.229 94.8059 314.95 96.3269C314.499 96.8619 313.647 98.003 313.28 98.7819C312.664 100.084 311.369 100.846 310.02 100.846Z"
                    fill="#00A4E2" />
            </g>
            <g id="Group_12">
                <path id="Vector_24"
                    d="M310.539 98.992C310.965 99.463 311.412 99.906 311.877 100.328C312.467 99.975 312.963 99.451 313.279 98.783C313.646 98.004 314.498 96.863 314.949 96.328C316.228 94.807 316.035 92.5371 314.515 91.2561C312.994 89.9731 310.724 90.164 309.44 91.684C309.369 91.77 309.076 92.122 308.693 92.629C308.726 94.898 308.964 97.256 310.539 98.992Z"
                    fill="#0086CF" />
            </g>
            <g id="Group_13">
                <path id="Vector_25"
                    d="M322.367 95.0179C320.933 98.4949 316.954 100.153 313.476 98.7189C309.999 97.2849 308.342 93.3049 309.776 89.8259L311.578 85.4569C313.012 81.9779 316.993 80.3219 320.47 81.7559C323.947 83.1899 325.603 87.1699 324.169 90.6469L322.367 95.0179Z"
                    fill="#00A4E2" />
            </g>
            <path id="Vector_26"
                d="M310.538 89.3179C309.984 91.6579 306.623 90.9079 305.361 89.6849C303.622 88.0029 302.584 83.2439 306.437 83.4979C303.662 79.3079 313.076 74.7639 314.064 79.6059C314.799 78.3569 315.551 77.2349 317.189 77.1289C318.368 77.0539 320.432 77.9659 320.261 79.4099C322.012 78.0259 324.562 78.1339 326.294 79.5319C326.848 79.9799 327.847 80.9759 327.347 81.7019C327.072 82.1019 325.654 82.2249 325.179 82.3699C325.998 81.9989 329.353 82.7469 328.693 84.1409C328.385 84.7909 326.744 84.2069 326.263 84.0689C326.263 84.0689 326.258 84.2209 326.263 84.2149C328.055 85.1969 328.793 86.1939 328.578 88.4239C328.479 89.4489 327.994 91.3869 326.774 91.5329C326.149 91.6069 325.427 91.2129 325.438 90.5579C326.935 92.0519 324.815 96.0519 322.924 94.0799C322.183 93.3069 322.54 92.0099 323.243 91.3419C322.125 90.6989 319.699 87.2989 321.425 86.3889C320.618 86.4089 316.883 85.1409 318.071 84.0669C318.385 85.3129 316.842 86.9259 315.614 86.2859C316.378 87.9479 314.132 89.1879 312.752 89.2469C313.597 90.3099 310.993 91.5709 310.198 90.0299L310.538 89.3179Z"
                fill="#00396A" />
        </g>
        <g id="Group_14">
            <path id="Vector_27"
                d="M182.592 75.726C182.592 75.726 180.406 67.359 191.249 65.371L190.423 75.425L182.592 75.726Z"
                fill="#0089E0" />
            <g id="Group_15">
                <path id="Vector_28"
                    d="M139.145 96.853C136.771 96.853 134.564 96.373 132.529 95.41C122.679 90.756 121.585 76.773 121.544 76.18C121.396 74.071 122.985 72.241 125.093 72.093C127.198 71.946 129.025 73.528 129.178 75.633C129.392 78.446 131 86.2359 135.816 88.4979C139.793 90.3649 145.961 88.465 153.655 83C155.378 81.775 157.767 82.182 158.991 83.904C160.215 85.629 159.809 88.017 158.086 89.242C150.949 94.309 144.608 96.853 139.145 96.853Z"
                    fill="#CDE5E8" />
            </g>
            <g id="Group_16">
                <g id="Group_17">
                    <path id="Vector_29"
                        d="M159.51 104.035C160.574 101.242 161.561 98.406 162.71 95.644C161.935 95.584 161.154 95.484 160.361 95.334C156.648 94.625 153.505 93.115 150.931 90.803C148.355 88.492 146.367 85.563 144.964 82.02C143.561 78.476 142.745 74.447 142.517 69.931C142.287 65.417 142.652 60.651 143.61 55.632C144.587 50.515 146.01 45.926 147.878 41.862C149.746 37.799 151.985 34.378 154.596 31.601C157.205 28.824 160.133 26.836 163.379 25.636C166.623 24.437 170.103 24.19 173.816 24.899C176.755 25.461 179.344 26.569 181.597 28.205C182.682 26.04 183.848 23.915 184.958 21.795C186.269 19.288 187.487 16.734 188.653 14.158C189.151 13.056 189.583 11.922 190.035 10.797C186.272 8.65196 182.055 7.12996 177.381 6.23596C170.758 4.97096 164.524 5.21096 158.68 6.95396C152.833 8.69896 147.572 11.618 142.889 15.715C138.206 19.813 134.233 24.957 130.972 31.143C127.708 37.332 125.351 44.241 123.895 51.865C122.438 59.491 122.082 66.782 122.836 73.737C123.586 80.692 125.384 86.936 128.227 92.471C131.07 98.006 134.884 102.662 139.677 106.436C144.138 109.952 149.394 112.378 155.445 113.717C156.878 110.522 158.264 107.31 159.51 104.035Z"
                        fill="#00AFE2" />
                    <path id="Vector_30"
                        d="M211.341 46.4969C210.588 39.5429 208.792 33.2969 205.95 27.7619C203.107 22.2269 199.29 17.5729 194.501 13.7969C193.211 12.7809 191.852 11.8589 190.431 11.0249C189.983 12.1489 189.554 13.2819 189.047 14.3789C187.859 16.9459 186.668 19.5089 185.352 22.0149C184.231 24.1479 183.054 26.2879 181.963 28.4689C182.351 28.7649 182.73 29.0729 183.096 29.4009C185.669 31.7139 187.683 34.6459 189.136 38.1989C190.589 41.7519 191.436 45.7619 191.675 50.2279C191.913 54.6939 191.544 59.4839 190.568 64.6009C189.61 69.6189 188.191 74.1849 186.314 78.2959C184.436 82.4099 182.166 85.8489 179.505 88.6169C176.844 91.3849 173.892 93.3709 170.648 94.5679C168.255 95.4529 165.764 95.8199 163.175 95.6769C161.902 98.6979 160.829 101.81 159.668 104.868C158.519 107.893 157.227 110.86 155.898 113.811C156.197 113.874 156.495 113.936 156.796 113.995C163.417 115.261 169.65 115.02 175.495 113.276C181.339 111.534 186.603 108.614 191.286 104.516C195.97 100.418 199.94 95.2759 203.203 89.0859C206.465 82.8999 208.825 75.9919 210.282 68.3659C211.739 60.7439 212.091 53.4519 211.341 46.4969Z"
                        fill="#006091" />
                </g>
                <g id="Group_18">
                    <path id="Vector_31"
                        d="M168.49 117.971C161.868 116.705 156.161 114.184 151.371 110.41C146.578 106.637 142.764 101.98 139.922 96.445C137.078 90.91 135.281 84.666 134.53 77.71C133.777 70.757 134.133 63.466 135.589 55.839C137.045 48.215 139.402 41.3069 142.667 35.1179C145.928 28.9309 149.901 23.7859 154.584 19.6889C159.267 15.5919 164.528 12.6719 170.375 10.9279C176.219 9.18495 182.452 8.94595 189.075 10.211C195.696 11.476 201.401 13.9959 206.193 17.7709C210.984 21.5479 214.8 26.2009 217.643 31.7359C220.487 37.2709 222.281 43.5169 223.035 50.4709C223.785 57.4269 223.433 64.7179 221.976 72.3419C220.519 79.9679 218.16 86.875 214.898 93.062C211.634 99.252 207.664 104.394 202.981 108.492C198.298 112.59 193.034 115.51 187.19 117.252C181.344 118.994 175.112 119.236 168.49 117.971ZM172.056 99.3089C175.668 99.9979 179.095 99.745 182.341 98.543C185.585 97.346 188.538 95.359 191.199 92.592C193.858 89.824 196.129 86.385 198.007 82.272C199.885 78.16 201.303 73.5949 202.261 68.5769C203.239 63.4589 203.608 58.67 203.369 54.203C203.131 49.738 202.283 45.727 200.832 42.175C199.378 38.621 197.363 35.69 194.791 33.377C192.215 31.066 189.123 29.5639 185.512 28.8739C181.798 28.1639 178.319 28.412 175.076 29.61C171.829 30.811 168.902 32.798 166.292 35.576C163.681 38.353 161.442 41.774 159.575 45.837C157.706 49.901 156.284 54.4889 155.306 59.6069C154.347 64.6249 153.983 69.392 154.212 73.906C154.441 78.423 155.256 82.4499 156.66 85.9949C158.062 89.5379 160.05 92.468 162.626 94.778C165.198 97.09 168.342 98.5999 172.056 99.3089Z"
                        fill="#0076AD" />
                </g>
            </g>
            <g id="Group_19">
                <path id="Vector_32"
                    d="M236.003 61.772L236.295 75.841C236.295 75.841 232.277 79.442 228.678 75.841L230.005 59.996L236.003 61.772Z"
                    fill="#00396A" />
                <path id="Vector_33"
                    d="M219.432 174.004C219.203 173.822 217.634 173.092 217.417 172.91C216.575 174.172 215.986 174.867 214.974 175.914C217.454 178.076 216.817 180.703 216.817 180.703C216.817 180.703 215.062 182.213 214.376 182.553C212.187 183.631 208.15 185.129 208.15 185.129L218.317 185.926L225.858 178.201C223.185 176.709 221.136 175.352 219.432 174.004Z"
                    fill="#002E4F" />
                <path id="Vector_34"
                    d="M179.598 174.555C177.979 174.272 175.935 175.512 174.618 174.555C174.312 177.383 174.371 178.926 174.371 178.926L159.329 185.129H178.539C178.712 183.082 178.345 181.117 178.621 179.221C178.761 178.246 179.421 175.494 179.598 174.555Z"
                    fill="#002E4F" />
                <path id="Vector_35"
                    d="M197.108 106.283L180.111 138.58C180.111 138.58 186.998 144.406 193.779 146.348L206.521 108.295L197.108 106.283Z"
                    fill="#CDE5E8" />
                <path id="Vector_36"
                    d="M215.72 176.723C216.74 175.68 217.581 174.436 218.42 173.172C214.023 169.404 211.872 165.522 205.898 158.84C203.426 156.074 209.974 140.238 211.564 137.582C214.42 132.809 214.862 129.348 217.095 121.178L200.495 127.379C196.544 141.533 191.94 155.69 196.556 162.442C201.433 169.581 210.088 175.331 214.265 178.202C214.424 178.31 215.581 176.617 215.72 176.723Z"
                    fill="#002E4F" />
                <g id="Group_20">
                    <path id="Vector_37"
                        d="M187.769 74.0649C187.541 74.0649 187.313 73.9969 187.114 73.8539C186.609 73.4919 186.494 72.7879 186.856 72.2839C188.193 70.4209 188.487 68.8879 188.49 68.8719C188.602 68.2639 189.183 67.8559 189.796 67.9639C190.405 68.0729 190.813 68.6499 190.708 69.2599C190.693 69.3409 190.345 71.2839 188.686 73.5949C188.465 73.9019 188.119 74.0649 187.769 74.0649Z"
                        fill="#00A4E2" />
                </g>
                <path id="Vector_38"
                    d="M215.916 124.6C220.857 111.034 225.076 89.745 226.656 81.248C225.773 80.881 224.907 80.605 224.219 80.414C222.753 80.01 220.996 79.533 219.493 80C218.73 80.238 218.051 80.631 217.385 81.049C216.769 82.893 216.515 84.447 216.515 84.447C216.515 84.447 205.902 104.736 198.987 118.572C204.86 119.889 210.603 121.818 215.916 124.6Z"
                    fill="#F6EE9E" />
                <path id="Vector_39"
                    d="M198.788 118.988C198.785 118.986 198.783 118.986 198.78 118.984C198.168 120.211 197.586 121.384 197.046 122.484H197.041C195.681 124.894 194.215 127.123 192.795 129.263C179.138 149.855 173.981 166.267 173.069 174.034C174.373 175.052 179.304 175.628 180.948 175.913C183.468 163.038 190.024 154.819 201.771 145.108C205.702 141.858 208.642 137.729 211.226 134.301C212.766 132.258 214.294 128.983 215.761 125.016C210.438 122.227 204.672 120.301 198.788 118.988Z"
                    fill="#00396A" />
                <g id="Group_21">
                    <path id="Vector_40"
                        d="M185.535 124.652C183.949 124.652 182.467 123.66 181.919 122.078C181.227 120.08 182.284 117.9 184.281 117.209C188.925 115.6 196.046 109.252 200.847 102.443C210.591 88.6269 217.432 80.9659 217.719 80.6459C219.13 79.0729 221.55 78.9409 223.123 80.3529C224.695 81.7629 224.827 84.1829 223.416 85.7549C223.349 85.8309 216.562 93.4389 207.101 106.853C202.362 113.574 193.982 121.945 186.787 124.439C186.374 124.584 185.951 124.652 185.535 124.652Z"
                        fill="#00A4E2" />
                </g>
                <g id="Group_22">
                    <path id="Vector_41"
                        d="M223.969 82.5159C223.881 82.5159 223.792 82.5119 223.702 82.5059C221.719 82.3599 220.228 80.6349 220.373 78.6499C220.525 76.5759 221.328 74.2009 221.42 73.9359C222.069 72.0559 224.119 71.0579 226 71.7069C227.879 72.3549 228.877 74.4029 228.23 76.2829C228.003 76.9449 227.62 78.3159 227.557 79.1749C227.419 81.0699 225.839 82.5139 223.969 82.5159Z"
                        fill="#00A4E2" />
                </g>
                <g id="Group_23">
                    <path id="Vector_42"
                        d="M225.023 78.7159C225.66 79.4479 226.355 80.0989 227.091 80.6949C227.35 80.2419 227.516 79.7289 227.557 79.1749C227.62 78.3169 228.003 76.9459 228.23 76.2829C228.877 74.4029 227.878 72.3549 226 71.7069C224.44 71.1679 222.767 71.7659 221.869 73.0569C222.201 75.0909 223.862 77.3829 225.023 78.7159Z"
                        fill="#0086CF" />
                </g>
                <g id="Group_24">
                    <path id="Vector_43"
                        d="M234.304 70.9179C234.22 74.6769 231.104 77.6569 227.343 77.5729C223.583 77.4879 220.604 74.3719 220.689 70.6119L220.794 65.8859C220.878 62.1249 223.995 59.1459 227.755 59.2309C231.515 59.3159 234.494 62.4309 234.41 66.1919L234.304 70.9179Z"
                        fill="#00A4E2" />
                </g>
                <g id="Group_25">
                    <path id="Vector_44"
                        d="M180.131 123.596C178.561 123.596 176.764 123.174 174.753 122.328C174.181 122.088 173.911 121.428 174.151 120.855C174.392 120.281 175.051 120.011 175.625 120.252C178.588 121.498 180.946 121.676 182.447 120.768C182.98 120.446 183.671 120.618 183.993 121.149C184.314 121.68 184.144 122.372 183.612 122.694C182.618 123.295 181.455 123.596 180.131 123.596Z"
                        fill="#00A4E2" />
                </g>
                <g id="Group_26">
                    <path id="Vector_45"
                        d="M181.479 125.232C179.688 125.232 178.251 124.884 176.616 124.488L176.109 124.367C175.504 124.222 175.131 123.615 175.277 123.01C175.421 122.407 176.029 122.03 176.634 122.178L177.146 122.301C179.876 122.961 181.68 123.399 185.671 122.367C186.276 122.213 186.887 122.574 187.042 123.176C187.197 123.779 186.835 124.393 186.233 124.549C184.31 125.045 182.799 125.232 181.479 125.232Z"
                        fill="#00A4E2" />
                </g>
                <g id="Group_27">
                    <path id="Vector_46"
                        d="M180.054 121.379C176.521 121.379 174.1 119.205 173.979 119.094C173.521 118.674 173.49 117.963 173.91 117.504C174.329 117.047 175.038 117.016 175.497 117.432C175.609 117.534 178.198 119.815 181.681 118.918C182.286 118.762 182.897 119.125 183.052 119.727C183.207 120.329 182.845 120.944 182.242 121.098C181.477 121.295 180.743 121.379 180.054 121.379Z"
                        fill="#00A4E2" />
                </g>
                <g id="Group_28">
                    <path id="Vector_47"
                        d="M182.413 120.17C182.369 120.17 182.325 120.166 182.281 120.162C178.447 119.713 176.888 116.953 176.824 116.836C176.525 116.291 176.724 115.607 177.269 115.307C177.81 115.01 178.491 115.205 178.793 115.745C178.846 115.837 179.909 117.618 182.542 117.927C183.16 117.999 183.602 118.558 183.529 119.175C183.463 119.746 182.977 120.17 182.413 120.17Z"
                        fill="#00A4E2" />
                </g>
                <g id="Group_29">
                    <path id="Vector_48"
                        d="M195.864 75.6889C195.803 75.6889 195.742 75.6839 195.679 75.6729C193.816 75.3639 188.719 74.5629 187.534 74.5629C186.912 74.5629 186.408 74.0589 186.408 73.4369C186.408 72.8159 186.912 72.3109 187.534 72.3109C189.118 72.3109 195.342 73.3349 196.046 73.4529C196.659 73.5549 197.075 74.1339 196.973 74.7469C196.883 75.2969 196.405 75.6889 195.864 75.6889Z"
                        fill="#00A4E2" />
                </g>
                <g id="Group_30">
                    <path id="Vector_49"
                        d="M195.144 78.0519C195.046 78.0519 194.946 78.0389 194.847 78.0119C194.793 77.9969 189.441 76.5399 186.951 76.3989C186.33 76.3639 185.856 75.8319 185.891 75.2109C185.926 74.5899 186.462 74.1008 187.079 74.1518C189.806 74.3068 195.213 75.7789 195.441 75.8409C196.041 76.0049 196.393 76.6229 196.229 77.2229C196.093 77.7239 195.639 78.0519 195.144 78.0519Z"
                        fill="#00A4E2" />
                </g>
                <g id="Group_31">
                    <path id="Vector_50"
                        d="M194.602 80.5269C194.487 80.5269 194.37 80.5089 194.256 80.4739C189.188 78.8379 187.939 78.7369 187.268 78.6839C186.977 78.6609 186.704 78.6379 186.33 78.5389C185.729 78.3799 185.371 77.7649 185.529 77.1629C185.689 76.5619 186.304 76.2049 186.906 76.3619C187.085 76.4099 187.214 76.4209 187.448 76.4389C188.264 76.5049 189.63 76.6149 194.948 78.3309C195.539 78.5219 195.864 79.1559 195.674 79.7479C195.519 80.2249 195.077 80.5269 194.602 80.5269Z"
                        fill="#00A4E2" />
                </g>
                <g id="Group_32">
                    <path id="Vector_51"
                        d="M192.375 82.3299C192.349 82.3299 192.321 82.3279 192.294 82.3259C187.218 81.9629 187.007 79.2069 187 78.8939L189.251 78.8409C189.251 78.8409 189.254 78.8149 189.245 78.7679C189.247 78.7799 189.479 79.8689 192.455 80.0819C193.074 80.1249 193.541 80.6639 193.497 81.2829C193.454 81.8769 192.961 82.3299 192.375 82.3299Z"
                        fill="#00A4E2" />
                </g>
                <path id="Vector_52"
                    d="M188.125 80.9789C188.125 80.9789 187.148 80.5279 185.626 80.5279C184.346 80.5279 182.606 78.3559 182.606 76.1019C182.606 76.1019 181.981 69.4559 188.997 72.4619L188.125 80.9789Z"
                    fill="#00A4E2" />
                <path id="Vector_53"
                    d="M210.219 100.734L200.383 149.16C200.383 149.16 215.615 152.83 224.958 147.449L227.321 80.1639C227.321 80.1639 216.866 76.5049 210.219 100.734Z"
                    fill="#CDE5E8" />
                <path id="Vector_54"
                    d="M212.496 127.379L221.918 126.873C221.918 126.873 222.144 141.281 216.516 140.719C216.516 140.719 208.814 142.402 212.496 127.379Z"
                    fill="#E1F3F6" />
                <path id="Vector_55"
                    d="M224.326 79.013C223.292 78.085 221.958 77.575 220.569 77.575C218.972 77.575 217.444 78.2559 216.38 79.4429C216.092 79.7649 209.209 87.4629 199.377 101.404C198.733 102.316 198.025 103.248 197.271 104.174L196.271 105.401L197.361 106.549C198.521 107.776 199.739 108.971 200.916 110.125C201.555 110.752 202.193 111.379 202.824 112.012L204.215 113.407L205.48 111.897C206.609 110.551 207.65 109.204 208.576 107.893C217.977 94.561 224.692 87.036 224.76 86.959C226.829 84.65 226.635 81.084 224.326 79.013Z"
                    fill="#E1F3F6" />
                <path id="Vector_56"
                    d="M198.483 101.055L194.681 105.287L204.585 114.184L208.387 109.952L198.483 101.055Z"
                    fill="#F8FDFF" />
                <path id="Vector_57"
                    d="M213.852 73.621L222.506 77.013C222.506 77.013 226.186 59.108 223.5 56.423C223.5 56.423 213.852 55.508 213.852 73.621Z"
                    fill="#00396A" />
                <path id="Vector_58"
                    d="M224.001 59.5399C224.308 59.9969 231.022 64.4779 236.295 63.2379C236.295 63.2379 235.394 55.3229 223.086 56.4639L224.001 59.5399Z"
                    fill="#00396A" />
                <path id="Vector_59"
                    d="M229.185 67.9809C229.185 70.0599 227.5 71.7439 225.421 71.7439C223.343 71.7439 221.658 70.0599 221.658 67.9809C221.658 65.9029 223.343 64.2179 225.421 64.2179C227.5 64.2189 229.185 65.9029 229.185 67.9809Z"
                    stroke="#DDDD67" stroke-width="0.8679" stroke-miterlimit="10" />
                <path id="Vector_60"
                    d="M237.685 68.7189C237.685 70.5269 236.22 71.9929 234.412 71.9929C232.604 71.9929 231.139 70.5269 231.139 68.7189C231.139 66.9109 232.605 65.4459 234.412 65.4459C236.22 65.4459 237.685 66.9109 237.685 68.7189Z"
                    stroke="#DDDD67" stroke-width="0.755" stroke-miterlimit="10" />
                <path id="Vector_61" d="M229.185 67.981C229.185 67.981 230.434 67.492 231.178 68.236" stroke="#DDDD67"
                    stroke-width="0.8679" stroke-miterlimit="10" />
            </g>
            <g id="Group_33">
                <g id="Group_34">
                    <path id="Vector_62"
                        d="M119.695 74.573C119.607 74.573 119.519 74.569 119.429 74.562C117.445 74.417 115.954 72.691 116.099 70.707C116.251 68.633 117.054 66.258 117.146 65.994C117.794 64.114 119.845 63.115 121.726 63.765C123.605 64.414 124.603 66.462 123.956 68.341C123.729 69.004 123.346 70.375 123.283 71.234C123.145 73.127 121.565 74.572 119.695 74.573Z"
                        fill="#0086CF" />
                </g>
                <g id="Group_35">
                    <path id="Vector_63"
                        d="M117.557 174.533C123.523 177.287 128.418 177.23 128.813 177.287C132.703 170.365 144.42 151.621 133.76 136.238L118.683 128.134C118.683 128.134 133.76 143.865 117.557 174.533Z"
                        fill="#002E4F" />
                    <path id="Vector_64"
                        d="M125.361 180.66C125.361 180.66 126.754 177.834 127.841 175.935C127.025 175.835 123.373 175.687 121.873 175.111C120.465 177.986 117.397 182.199 115.23 185.088H135.49L125.361 180.66Z"
                        fill="#002E4F" />
                    <path id="Vector_65"
                        d="M150.424 137.139C147.904 132.248 129.604 117.52 127.945 109.061C127.799 108.313 127.673 107.544 127.564 106.756C124.625 108.311 120.809 108.733 117.786 108.887C114.357 109.061 112.307 109.274 108.989 107.659C109.27 112.909 108.416 117.977 111.478 123.296C117.556 133.847 137.752 142.882 140.005 146.368C144.447 153.247 145.984 168.179 147.496 177.288C149.874 177.288 155.512 177.184 157.829 176.362C157.048 171.69 158.317 152.461 150.424 137.139Z"
                        fill="#00396A" />
                    <path id="Vector_66"
                        d="M156.731 179.842C156.731 179.842 156.074 177.178 155.877 175.936C153.559 176.751 152.21 175.93 149.825 175.936C150.186 178.196 149.919 182.419 150.128 184.897H169.338L156.731 179.842Z"
                        fill="#002E4F" />
                    <path id="Vector_67"
                        d="M117.927 111.65C120.853 111.515 126.998 110.701 129.464 108.236C128.959 104.22 127.164 97.759 127.796 92.56C129.939 74.932 121.331 69.648 121.331 69.648C121.331 69.648 117.368 66.877 114.156 70.186C109.314 75.174 104.59 89.277 105.063 110.127C108.401 111.85 114.419 111.81 117.927 111.65Z"
                        fill="#CDE5E8" />
                </g>
                <g id="Group_36">
                    <path id="Vector_68"
                        d="M162.071 117.215C161.785 117.215 161.494 117.184 161.203 117.115C147.332 113.896 135.585 105.586 127.231 93.08C120.971 83.711 118.809 75.302 118.719 74.949C118.202 72.899 119.446 70.82 121.495 70.304C123.543 69.787 125.621 71.028 126.14 73.074C126.18 73.227 128.173 80.791 133.74 89.045C141.085 99.932 150.906 106.869 162.932 109.66C164.992 110.137 166.273 112.193 165.795 114.252C165.386 116.02 163.811 117.215 162.071 117.215Z"
                        fill="#00A4E2" />
                </g>
                <path id="Vector_69"
                    d="M153.64 105.717C145.997 102.098 139.491 96.362 134.301 88.666C128.802 80.514 126.814 72.98 126.796 72.908C126.289 70.909 124.495 69.511 122.435 69.511C122.065 69.511 121.693 69.557 121.331 69.649C120.165 69.942 119.183 70.673 118.566 71.705C117.949 72.737 117.771 73.948 118.065 75.114L118.084 75.197C118.676 77.773 121.042 86.834 126.67 95.256C133.406 105.342 142.546 112.891 153.101 117.09C153.181 117.121 153.266 117.137 153.351 117.137C153.484 117.137 153.617 117.098 153.73 117.02C153.915 116.895 154.026 116.686 154.026 116.461V106.326C154.025 106.065 153.875 105.828 153.64 105.717Z"
                    fill="#E1F3F6" />
                <g id="Group_37">
                    <path id="Vector_70"
                        d="M164.914 117.488C163.687 117.488 162.386 117.351 161.011 117.076C160.401 116.955 160.006 116.361 160.127 115.752C160.249 115.143 160.841 114.746 161.452 114.869C164.804 115.539 167.6 115.295 169.764 114.142C170.313 113.849 170.994 114.058 171.286 114.607C171.578 115.156 171.37 115.837 170.821 116.129C169.121 117.035 167.144 117.488 164.914 117.488Z"
                        fill="#00A4E2" />
                </g>
                <g id="Group_38">
                    <path id="Vector_71"
                        d="M165.073 114.969C164.537 114.969 163.985 114.934 163.425 114.852C162.81 114.762 162.384 114.19 162.474 113.575C162.564 112.96 163.133 112.534 163.75 112.624C167.35 113.151 170.683 111.282 170.717 111.263C171.257 110.956 171.944 111.142 172.252 111.681C172.56 112.22 172.376 112.906 171.838 113.216C171.696 113.295 168.742 114.969 165.073 114.969Z"
                        fill="#00A4E2" />
                </g>
                <g id="Group_39">
                    <path id="Vector_72"
                        d="M164.074 112.754C163.899 112.754 163.72 112.748 163.538 112.736C162.917 112.697 162.446 112.164 162.485 111.543C162.524 110.922 163.059 110.451 163.679 110.49C166.342 110.654 167.74 109.037 167.752 109.021C168.144 108.537 168.854 108.464 169.335 108.857C169.817 109.248 169.892 109.957 169.499 110.439C169.42 110.539 167.578 112.754 164.074 112.754Z"
                        fill="#00A4E2" />
                </g>
                <g id="Group_40">
                    <path id="Vector_73"
                        d="M160.182 110.855C159.561 110.855 159.056 110.351 159.056 109.73C159.056 109.111 159.557 108.607 160.176 108.605C160.277 108.603 162.499 108.552 163.771 106.72C164.126 106.208 164.827 106.083 165.337 106.437C165.848 106.79 165.975 107.492 165.62 108.003C163.663 110.824 160.322 110.855 160.182 110.855Z"
                        fill="#00A4E2" />
                </g>
                <g id="Group_41">
                    <path id="Vector_74"
                        d="M156.502 85.451C156.151 85.451 155.806 85.289 155.586 84.982C153.926 82.669 153.577 80.728 153.563 80.646C153.458 80.035 153.869 79.452 154.482 79.347C155.091 79.241 155.675 79.652 155.782 80.265C155.784 80.273 156.079 81.806 157.416 83.669C157.778 84.175 157.663 84.878 157.157 85.239C156.959 85.383 156.728 85.451 156.502 85.451Z"
                        fill="#00A4E2" />
                </g>
                <g id="Group_42">
                    <path id="Vector_75"
                        d="M156.737 85.9491C156.667 85.9491 156.594 85.943 156.523 85.929C154.061 85.456 149.175 85.451 149.126 85.451C148.505 85.451 148.001 84.947 148.001 84.326C148.001 83.705 148.505 83.201 149.126 83.201C149.335 83.201 154.275 83.207 156.947 83.719C157.557 83.834 157.958 84.424 157.84 85.035C157.738 85.574 157.266 85.9491 156.737 85.9491Z"
                        fill="#00A4E2" />
                </g>
                <g id="Group_43">
                    <path id="Vector_76"
                        d="M148.509 88.293C147.949 88.293 147.464 87.875 147.393 87.307C147.317 86.69 147.754 86.127 148.372 86.051C149.087 85.961 155.409 85.192 157.454 85.555C158.066 85.662 158.474 86.246 158.365 86.86C158.257 87.471 157.671 87.881 157.06 87.77C155.771 87.543 151.217 87.965 148.65 88.284C148.602 88.289 148.555 88.293 148.509 88.293Z"
                        fill="#00A4E2" />
                </g>
                <g id="Group_44">
                    <path id="Vector_77"
                        d="M149.972 90.838C149.444 90.838 148.972 90.465 148.868 89.926C148.75 89.315 149.15 88.725 149.761 88.608C152.488 88.083 153.215 87.85 154.535 87.424C155.153 87.225 155.923 86.979 157.07 86.645C157.666 86.473 158.292 86.817 158.464 87.413C158.637 88.011 158.293 88.636 157.696 88.808C156.581 89.132 155.86 89.365 155.224 89.568C153.867 90.006 153.046 90.269 150.186 90.82C150.114 90.832 150.042 90.838 149.972 90.838Z"
                        fill="#00A4E2" />
                </g>
                <g id="Group_45">
                    <path id="Vector_78"
                        d="M152.396 92.627C151.858 92.627 151.381 92.24 151.288 91.691C151.184 91.078 151.596 90.496 152.208 90.392C155.853 89.767 156.58 88.408 156.584 88.394C156.779 87.802 157.415 87.482 158.006 87.677C158.596 87.872 158.916 88.509 158.722 89.099C158.577 89.535 157.606 91.751 152.588 92.611C152.523 92.621 152.46 92.627 152.396 92.627Z"
                        fill="#00A4E2" />
                </g>
                <path id="Vector_79"
                    d="M156.735 91.272L155.877 82.098C155.877 82.098 159.901 82.391 159.893 86.608C159.89 88.016 159.484 89.584 156.735 91.272Z"
                    fill="#00A4E2" />
                <g id="Group_46">
                    <path id="Vector_80"
                        d="M131.405 61.385C132.421 65.225 130.131 69.163 126.29 70.178C122.448 71.194 118.511 68.905 117.494 65.064L116.217 60.235C115.201 56.394 117.491 52.456 121.332 51.44C125.174 50.423 129.111 52.713 130.128 56.555L131.405 61.385Z"
                        fill="#00A4E2" />
                </g>
                <g id="Group_47">
                    <path id="Vector_81"
                        d="M130.73 58.833C130.184 60.357 129.41 61.866 128.222 62.893C125.326 65.392 120.886 66.066 117.363 64.568L117.494 65.066C118.511 68.907 122.448 71.196 126.29 70.18C130.131 69.165 132.421 65.226 131.405 61.387L130.73 58.833Z"
                        fill="#00396A" />
                </g>
                <path id="Vector_82"
                    d="M117.473 64.799C114.771 63.064 111.853 56.47 116.121 55.027C118.762 54.134 117.698 62.274 117.698 64.575L117.473 64.799Z"
                    fill="#00396A" />
                <path id="Vector_83"
                    d="M115.304 55.57C112.038 53.204 116.085 46.51 124.155 46.51C129.142 46.51 129.106 50.331 125.657 52.393C122.795 54.104 118.356 53.102 116.206 56.019L115.304 55.57Z"
                    fill="#00396A" />
                <path id="Vector_84"
                    d="M130.728 60.309C129.585 58.575 127.332 55.062 126.456 53.085C125.9 51.829 125.139 49.687 127.655 51.208C129.761 52.481 130.905 56.971 130.707 59.247L130.728 60.309Z"
                    fill="#00396A" />
            </g>
        </g>
        <g id="Group_48">
            <g id="Group_49">
                <path id="Vector_85"
                    d="M73.706 76.315C72.464 77.465 71.097 78.536 69.977 79.817L53.729 113.758L65.825 98.145L78.672 71.589C77.028 73.176 75.384 74.764 73.706 76.315Z"
                    fill="#006091" />
                <path id="Vector_86"
                    d="M64.069 70.743C65.248 69.131 66.382 67.237 67.722 65.572L39.283 51.687L12.3 54.388L59.579 76.19C61.13 74.422 62.688 72.632 64.069 70.743Z"
                    fill="#006091" />
                <path id="Vector_87"
                    d="M68.1281 65.77C66.6161 67.662 65.3901 69.887 63.9391 71.653C62.6361 73.239 61.3291 74.822 59.9921 76.381L81.4861 86.292L89.2901 76.102L68.1281 65.77Z"
                    fill="#00AFE2" />
                <path id="Vector_88"
                    d="M35.762 105.156L44.099 87.742L0.426025 66.836L7.44003 52.187L79.358 9.83203L98.983 19.227L70.136 79.483L82.022 85.174L73.951 102.033L62.065 96.344L53.729 113.758L35.762 105.156ZM68.114 37.576L67.009 37.047L28.537 59.569L52.17 70.883L68.114 37.576Z"
                    fill="#0076AD" />
                <path id="Vector_89" d="M82.021 85.174L89.289 76.101L83.586 88.746L73.682 102.58L82.021 85.174Z"
                    fill="#006091" />
                <path id="Vector_90"
                    d="M79.238 71.083L107.598 8.91504L98.982 19.228L70.135 79.484C70.94 78.708 78.779 71.542 79.238 71.083Z"
                    fill="#006091" />
                <path id="Vector_91" d="M7.43896 52.187L20.255 41.031L90.527 0.697998L79.357 9.832L7.43896 52.187Z"
                    fill="#009EE7" />
                <path id="Vector_92" d="M79.3571 9.832L98.9821 19.227L107.599 8.91499L90.5271 0.697998L79.3571 9.832Z"
                    fill="#00D2FD" />
            </g>
            <path id="Vector_93"
                d="M55.272 55.241C52.858 53.525 51.196 54.276 50.037 54.456C48.767 54.652 47.828 53.959 47.823 53.956C47.302 53.618 46.604 53.767 46.266 54.288C45.927 54.809 46.077 55.507 46.598 55.845C46.651 55.88 47.633 56.504 49.349 56.954C47.477 58.66 45.569 60.721 45.462 60.836C45.04 61.292 45.068 62.005 45.525 62.426C45.741 62.626 46.015 62.725 46.288 62.725C46.592 62.725 46.893 62.603 47.115 62.363C47.136 62.34 48.467 60.905 49.952 59.474C48.573 61.2 47.279 62.994 47.043 63.325C46.681 63.83 46.797 64.533 47.302 64.896C47.5 65.039 47.73 65.106 47.957 65.106C48.307 65.106 48.652 64.943 48.872 64.637C49.608 63.609 50.648 62.219 51.641 60.972C51.272 61.702 50.803 62.529 49.865 64.039C49.537 64.568 49.698 65.261 50.226 65.589C50.411 65.704 50.617 65.758 50.819 65.758C51.196 65.758 51.563 65.57 51.777 65.226C52.163 64.604 52.474 64.09 52.735 63.647C52.539 64.136 52.708 64.71 53.166 65.009C53.355 65.133 53.568 65.191 53.779 65.191C54.147 65.191 54.508 65.01 54.723 64.679C55.778 63.056 56.289 61.732 56.509 60.689L56.555 60.724C57.182 57.56 56.42 56.056 55.272 55.241ZM53.018 63.16C53.39 62.506 53.645 62.011 53.883 61.518C53.681 61.998 53.398 62.544 53.018 63.16Z"
                fill="#00A4E2" />
            <path id="Vector_94"
                d="M20.799 68.007C17.236 67.805 12.065 74.781 17.355 76.679C12.566 76.566 11.394 83.336 15.785 85.205C8.09697 83.709 8.99096 93.672 12.628 97.277C10.163 96.882 7.67196 99.238 8.04496 101.802C8.42096 104.384 9.44497 107.964 15.833 109.882C22.223 111.8 26.128 108.208 29.307 104.821C31.342 108.979 41.402 103.36 40.286 98.385C44.082 99.731 47.483 95.422 47.559 91.981C47.633 88.622 45.281 86.057 43.043 83.876C44.619 82.433 44.918 79.756 44.503 77.711C43.814 74.313 39.56 73.976 39.56 71.272C39.56 70.326 39.742 67.386 38.935 66.095C37.652 64.04 35.417 62.007 32.607 63.011C20.799 57.411 20.799 68.007 20.799 68.007Z"
                fill="#00396A" />
            <path id="Vector_95"
                d="M27.684 177.287C24.437 176.721 23.913 176.883 20.705 176.099L13.277 185.177H42.091L25.358 180.675L27.684 177.287Z"
                fill="#002E4F" />
            <path id="Vector_96"
                d="M81.335 179.889L79.632 177.653C78.095 178.647 76.495 179.497 74.759 180.1L79.309 185.178H96.193L81.335 179.889Z"
                fill="#002E4F" />
            <path id="Vector_97"
                d="M17.6531 177.316C20.8811 178.107 24.1081 178.929 27.3761 179.484L51.1701 150.211L47.1181 138.58L30.4591 119.371L35.2581 146.594L17.6531 177.316Z"
                fill="#002E4F" />
            <path id="Vector_98"
                d="M50.0141 111.31C43.4861 109.578 34.6351 111.769 28.2841 114.165C28.2841 114.165 32.1801 129.675 34.7371 134.302C42.1851 147.773 74.4001 181.394 74.4001 181.394C76.1691 180.792 79.5781 178.296 81.1381 177.287L50.0141 111.31Z"
                fill="#00396A" />
            <path id="Vector_99"
                d="M27.42 120.232C33.724 117.865 46.369 113.873 52.858 115.494C52.858 115.494 44.264 95.3081 40.364 90.8551C37.731 87.8511 23.358 79.393 23.358 90.451C23.358 105.602 27.42 120.232 27.42 120.232Z"
                fill="#CDE5E8" />
            <g id="Group_50">
                <path id="Vector_100"
                    d="M33.023 89.508C32.939 89.537 32.855 89.563 32.767 89.588C30.847 90.106 28.871 88.969 28.352 87.049C27.81 85.041 27.785 82.533 27.783 82.254C27.774 80.264 29.381 78.645 31.37 78.637C33.358 78.628 34.976 80.232 34.987 82.219C34.992 82.92 35.083 84.34 35.306 85.17C35.802 87.006 34.788 88.891 33.023 89.508Z"
                    fill="#00A4E2" />
            </g>
            <g id="Group_51">
                <path id="Vector_101"
                    d="M35.426 85.947C35.413 85.689 35.377 85.429 35.307 85.17C35.083 84.34 34.993 82.92 34.988 82.219C34.977 80.233 33.359 78.629 31.371 78.637C29.382 78.645 27.775 80.263 27.784 82.254C27.784 82.299 27.786 82.408 27.789 82.559C29.563 84.563 32.488 85.506 35.426 85.947Z"
                    fill="#0086CF" />
            </g>
            <g id="Group_52">
                <path id="Vector_102"
                    d="M38.948 75.149C40.11 78.726 38.152 82.567 34.575 83.731C30.998 84.891 27.156 82.934 25.994 79.357L24.534 74.861C23.372 71.284 25.33 67.442 28.906 66.281C32.483 65.118 36.325 67.076 37.487 70.653L38.948 75.149Z"
                    fill="#00A4E2" />
            </g>
            <path id="Vector_103"
                d="M79.0571 71.5351C78.9141 71.4151 78.7491 71.342 78.5791 71.304C78.7431 71.125 78.9191 70.9321 79.1241 70.7101C79.5451 70.2521 79.5161 69.5401 79.0591 69.1191C79.0021 69.0671 78.9431 69.022 78.8791 68.984C79.1931 68.533 79.1411 67.91 78.7281 67.523C78.4081 67.224 77.9621 67.152 77.5771 67.291C78.0901 66.773 78.4091 66.4131 78.4471 66.3691C78.8581 65.9031 78.8131 65.191 78.3461 64.78C77.8801 64.369 77.1681 64.414 76.7581 64.881C76.7321 64.91 74.2841 67.6691 71.7681 69.1041C70.6761 67.4531 69.2111 66.874 69.1271 66.842C68.5501 66.623 67.9121 66.913 67.6861 67.487C67.4611 68.061 67.7481 68.712 68.3191 68.943C68.3691 68.963 69.2291 69.328 69.8981 70.357C69.8051 70.612 69.6981 70.974 69.6361 71.398C53.0721 93.818 31.1081 85.86 30.1131 85.482C28.1451 84.728 25.9361 85.705 25.1731 87.672C24.4081 89.643 25.3871 91.86 27.3581 92.623C27.6261 92.727 33.0031 94.7721 40.6711 94.7721C42.2131 94.7721 43.8491 94.69 45.5531 94.491C53.8221 93.532 66.0511 88.7681 75.8241 76.1751C75.9841 76.0831 76.2111 75.9431 76.5101 75.7251C76.7111 75.5951 76.9141 75.4531 77.1211 75.2811L77.0951 75.2611C77.6731 74.7751 78.3861 74.086 79.1961 73.12C79.5961 72.643 79.5331 71.9331 79.0571 71.5351Z"
                fill="#00A4E2" />
            <path id="Vector_104"
                d="M48.564 85.541L47.631 85.742C45.357 86.232 43.002 86.482 40.632 86.482C34.825 86.482 30.792 85.017 30.355 84.851C29.836 84.652 29.293 84.552 28.743 84.552C26.869 84.552 25.222 85.679 24.544 87.427C24.109 88.548 24.032 89.823 24.622 90.87C26.82 94.77 32.856 96.347 40.672 96.347C42.334 96.347 44.002 96.251 45.631 96.064C46.627 95.949 47.673 95.777 48.739 95.552L49.394 95.38C49.394 95.38 48.457 92.538 48.257 89.651C48.181 88.553 48.564 85.541 48.564 85.541Z"
                fill="#E1F3F6" />
            <path id="Vector_105"
                d="M24.382 78.475C26.746 76.973 27.563 74.159 27.303 71.345C29.376 72.739 31.016 71.889 32.311 69.494C36.239 74.998 42.225 66.809 34.062 63.844C27.533 61.472 21.133 67.929 22.806 74.423L24.382 78.475Z"
                fill="#00396A" />
        </g>
    </g>
</svg>